<?xml version="1.0" encoding="utf-8"?>
<!-- Generator: Adobe Illustrator 23.0.2, SVG Export Plug-In . SVG Version: 6.00 Build 0)  -->
<svg version="1.1" xmlns="http://www.w3.org/2000/svg" xmlns:xlink="http://www.w3.org/1999/xlink" x="0px" y="0px"
	 viewBox="0 0 2006.81 1277.62" style="enable-background:new 0 0 2006.81 1277.62;" xml:space="preserve">
<style type="text/css">
	.st0{fill:url(#SVGID_1_);}
	.st1{fill:url(#SVGID_2_);}
	.st2{fill:url(#SVGID_3_);}
	.st3{fill:url(#SVGID_4_);}
	.st4{fill:url(#SVGID_5_);}
	.st5{fill:url(#SVGID_6_);}
	.st6{fill:url(#SVGID_7_);}
	.st7{fill:url(#SVGID_8_);}
	.st8{fill:#F90000;}
	.st9{font-family:'TimesNewRomanPS-BoldMT';}
	.st10{font-size:43.0617px;}
	.st11{fill:none;stroke:#000000;stroke-width:1.148;stroke-linecap:square;stroke-miterlimit:10;}
	.st12{font-size:27.4029px;}
	.st13{font-size:48px;}
	.st14{font-size:46px;}
</style>
<g id="图层_2">
	<linearGradient id="SVGID_1_" gradientUnits="userSpaceOnUse" x1="233.7958" y1="105.4417" x2="2118.0654" y2="88.6042">
		<stop  offset="4.025560e-07" style="stop-color:#FFFFFF"/>
		<stop  offset="1" style="stop-color:#FF5597"/>
	</linearGradient>
	<rect x="83.7" y="53.64" class="st0" width="1859.74" height="89.67"/>
	<linearGradient id="SVGID_2_" gradientUnits="userSpaceOnUse" x1="233.8311" y1="190.3946" x2="2118.0154" y2="173.5579">
		<stop  offset="4.025560e-07" style="stop-color:#FFFFFF"/>
		<stop  offset="1" style="stop-color:#00D42B"/>
	</linearGradient>
	<rect x="83.7" y="143.31" class="st1" width="1859.74" height="80.24"/>
	<linearGradient id="SVGID_3_" gradientUnits="userSpaceOnUse" x1="233.9635" y1="251.4138" x2="2117.8279" y2="234.5799">
		<stop  offset="4.025560e-07" style="stop-color:#FFFFFF"/>
		<stop  offset="1" style="stop-color:#00B8E9"/>
	</linearGradient>
	<rect x="83.7" y="222" class="st2" width="1859.74" height="44.9"/>
	<linearGradient id="SVGID_4_" gradientUnits="userSpaceOnUse" x1="233.8185" y1="317.2103" x2="2118.0332" y2="300.3732">
		<stop  offset="4.025560e-07" style="stop-color:#FFFFFF"/>
		<stop  offset="1" style="stop-color:#E6FF2A"/>
	</linearGradient>
	<rect x="83.7" y="268.44" class="st3" width="1859.74" height="83.6"/>
	<linearGradient id="SVGID_5_" gradientUnits="userSpaceOnUse" x1="232.1603" y1="622.2051" x2="2120.3818" y2="605.3323">
		<stop  offset="4.025560e-07" style="stop-color:#FFFFFF"/>
		<stop  offset="1" style="stop-color:#FFB53F"/>
	</linearGradient>
	<rect x="83.7" y="352.04" class="st4" width="1859.74" height="526.36"/>
	<linearGradient id="SVGID_6_" gradientUnits="userSpaceOnUse" x1="233.7837" y1="927.1707" x2="2118.0825" y2="910.3329">
		<stop  offset="4.025560e-07" style="stop-color:#FFFFFF"/>
		<stop  offset="1" style="stop-color:#8EFF3F"/>
	</linearGradient>
	<rect x="83.7" y="873.76" class="st5" width="1859.74" height="92.89"/>
	<linearGradient id="SVGID_7_" gradientUnits="userSpaceOnUse" x1="233.4764" y1="1056.4417" x2="2118.5178" y2="1039.5973">
		<stop  offset="4.025560e-07" style="stop-color:#FFFFFF"/>
		<stop  offset="1" style="stop-color:#00AA81"/>
	</linearGradient>
	<rect x="83.7" y="962" class="st6" width="1859.74" height="174.94"/>
	<linearGradient id="SVGID_8_" gradientUnits="userSpaceOnUse" x1="233.8211" y1="1185.3627" x2="2118.0295" y2="1168.5258">
		<stop  offset="4.025560e-07" style="stop-color:#FFFFFF"/>
		<stop  offset="1" style="stop-color:#FF6A6E"/>
	</linearGradient>
	<rect x="83.7" y="1136.94" class="st7" width="1859.74" height="82.91"/>
</g>
<g id="图层_1">
	<rect x="-804.26" y="-883.91" class="st8" width="321.7" height="321.7"/>
	<text transform="matrix(0.9987 0 0 1 1499.3489 89.502)"><tspan x="0" y="0" class="st9 st10"> </tspan><tspan x="10.77" y="0" class="st9 st10">M</tspan><tspan x="51.84" y="0" class="st9 st10">a</tspan><tspan x="73.37" y="0" class="st9 st10">R</tspan><tspan x="104.68" y="0" class="st9 st10">a</tspan><tspan x="126.21" y="0" class="st9 st10">b</tspan><tspan x="149.73" y="0" class="st9 st10">8</tspan></text>
	<polyline class="st11" points="1349.81,98.47 1349.81,76.94 1493.48,76.94 	"/>
	<text transform="matrix(0.9987 0 0 1 1499.3489 132.5587)"><tspan x="0" y="0" class="st9 st10"> </tspan><tspan x="10.77" y="0" class="st9 st10">M</tspan><tspan x="51.84" y="0" class="st9 st10">a</tspan><tspan x="73.37" y="0" class="st9 st10">R</tspan><tspan x="104.68" y="0" class="st9 st10">a</tspan><tspan x="126.21" y="0" class="st9 st10">b</tspan><tspan x="149.73" y="0" class="st9 st10">4</tspan></text>
	<polyline class="st11" points="1349.81,101.41 1349.81,120.01 1493.48,120.01 	"/>
	<polyline class="st11" points="200.41,315.74 200.41,98.47 1349.81,98.47 	"/>
	<text transform="matrix(0.9987 0 0 1 1499.3489 175.6573)"><tspan x="0" y="0" class="st9 st10"> </tspan><tspan x="10.77" y="0" class="st9 st10">M</tspan><tspan x="51.84" y="0" class="st9 st10">a</tspan><tspan x="73.37" y="0" class="st9 st10">R</tspan><tspan x="104.68" y="0" class="st9 st10">a</tspan><tspan x="126.21" y="0" class="st9 st10">b</tspan><tspan x="149.73" y="0" class="st9 st10">5</tspan></text>
	<polyline class="st11" points="1349.81,184.6 1349.81,163.07 1493.48,163.07 	"/>
	<text transform="matrix(0.9987 0 0 1 1499.3489 218.6934)"><tspan x="0" y="0" class="st9 st10"> </tspan><tspan x="10.77" y="0" class="st9 st10">M</tspan><tspan x="51.84" y="0" class="st9 st10">a</tspan><tspan x="73.37" y="0" class="st9 st10">R</tspan><tspan x="104.68" y="0" class="st9 st10">a</tspan><tspan x="126.21" y="0" class="st9 st10">b</tspan><tspan x="149.73" y="0" class="st9 st10">7</tspan></text>
	<polyline class="st11" points="1349.81,187.53 1349.81,206.13 1493.48,206.13 	"/>
	<polyline class="st11" points="1062.46,232.55 1062.46,184.6 1349.81,184.6 	"/>
	<text transform="matrix(0.9987 0 0 1 1499.3489 261.7696)"><tspan x="0" y="0" class="st9 st10"> </tspan><tspan x="10.77" y="0" class="st9 st10">M</tspan><tspan x="51.84" y="0" class="st9 st10">a</tspan><tspan x="73.37" y="0" class="st9 st10">R</tspan><tspan x="104.68" y="0" class="st9 st10">a</tspan><tspan x="126.21" y="0" class="st9 st10">b</tspan><tspan x="149.73" y="0" class="st9 st10">3</tspan></text>
	<polyline class="st11" points="1206.13,281.49 1206.13,249.19 1493.48,249.19 	"/>
	<text transform="matrix(0.9987 0 0 1 1499.3489 304.8077)"><tspan x="0" y="0" class="st9 st10"> </tspan><tspan x="10.77" y="0" class="st9 st10">M</tspan><tspan x="51.84" y="0" class="st9 st10">a</tspan><tspan x="73.37" y="0" class="st9 st10">R</tspan><tspan x="104.68" y="0" class="st9 st10">a</tspan><tspan x="126.21" y="0" class="st9 st10">b</tspan><tspan x="149.73" y="0" class="st9 st10">16</tspan></text>
	<polyline class="st11" points="1349.81,313.78 1349.81,292.25 1493.48,292.25 	"/>
	<text transform="matrix(0.9987 0 0 1 1499.3489 347.8839)"><tspan x="0" y="0" class="st9 st10"> </tspan><tspan x="10.77" y="0" class="st9 st10">M</tspan><tspan x="51.84" y="0" class="st9 st10">a</tspan><tspan x="73.37" y="0" class="st9 st10">R</tspan><tspan x="104.68" y="0" class="st9 st10">a</tspan><tspan x="126.21" y="0" class="st9 st10">b</tspan><tspan x="149.73" y="0" class="st9 st10">18</tspan></text>
	<polyline class="st11" points="1349.81,316.72 1349.81,335.31 1493.48,335.31 	"/>
	<polyline class="st11" points="1206.13,284.42 1206.13,313.78 1349.81,313.78 	"/>
	<polyline class="st11" points="1062.46,235.49 1062.46,281.49 1206.13,281.49 	"/>
	<polyline class="st11" points="344.08,533.99 344.08,232.55 1062.46,232.55 	"/>
	<text transform="matrix(0.9987 0 0 1 1499.3489 390.9219)"><tspan x="0" y="0" class="st9 st10"> </tspan><tspan x="10.77" y="0" class="st9 st10">M</tspan><tspan x="51.84" y="0" class="st9 st10">a</tspan><tspan x="73.37" y="0" class="st9 st10">R</tspan><tspan x="104.68" y="0" class="st9 st10">a</tspan><tspan x="126.21" y="0" class="st9 st10">b</tspan><tspan x="149.73" y="0" class="st9 st10">12</tspan></text>
	<polyline class="st11" points="1349.81,399.91 1349.81,378.38 1493.48,378.38 	"/>
	<text transform="matrix(0.9987 0 0 1 1499.3489 433.9971)"><tspan x="0" y="0" class="st9 st10"> </tspan><tspan x="10.77" y="0" class="st9 st10">M</tspan><tspan x="51.84" y="0" class="st9 st10">a</tspan><tspan x="73.37" y="0" class="st9 st10">R</tspan><tspan x="104.68" y="0" class="st9 st10">a</tspan><tspan x="126.21" y="0" class="st9 st10">b</tspan><tspan x="149.73" y="0" class="st9 st10">13</tspan></text>
	<polyline class="st11" points="1349.81,402.84 1349.81,421.44 1493.48,421.44 	"/>
	<polyline class="st11" points="1206.13,442.97 1206.13,399.91 1349.81,399.91 	"/>
	<text transform="matrix(0.9987 0 0 1 1499.3489 477.0362)"><tspan x="0" y="0" class="st9 st10"> </tspan><tspan x="10.77" y="0" class="st9 st10">M</tspan><tspan x="51.84" y="0" class="st9 st10">a</tspan><tspan x="73.37" y="0" class="st9 st10">R</tspan><tspan x="104.68" y="0" class="st9 st10">a</tspan><tspan x="126.21" y="0" class="st9 st10">b</tspan><tspan x="149.73" y="0" class="st9 st10">15</tspan></text>
	<polyline class="st11" points="1349.81,486.03 1349.81,464.5 1493.48,464.5 	"/>
	<text transform="matrix(0.9987 0 0 1 1499.3489 520.1319)"><tspan x="0" y="0" class="st9 st10"> </tspan><tspan x="10.77" y="0" class="st9 st10">M</tspan><tspan x="51.84" y="0" class="st9 st10">a</tspan><tspan x="73.37" y="0" class="st9 st10">R</tspan><tspan x="104.68" y="0" class="st9 st10">a</tspan><tspan x="126.21" y="0" class="st9 st10">b</tspan><tspan x="149.73" y="0" class="st9 st10">25</tspan></text>
	<polyline class="st11" points="1349.81,488.97 1349.81,507.56 1493.48,507.56 	"/>
	<polyline class="st11" points="1206.13,445.9 1206.13,486.03 1349.81,486.03 	"/>
	<polyline class="st11" points="1062.46,496.8 1062.46,442.97 1206.13,442.97 	"/>
	<text transform="matrix(0.9987 0 0 1 1499.3489 563.1895)"><tspan x="0" y="0" class="st9 st10"> </tspan><tspan x="10.77" y="0" class="st9 st10">M</tspan><tspan x="51.84" y="0" class="st9 st10">a</tspan><tspan x="73.37" y="0" class="st9 st10">R</tspan><tspan x="104.68" y="0" class="st9 st10">a</tspan><tspan x="126.21" y="0" class="st9 st10">b</tspan><tspan x="149.73" y="0" class="st9 st10">23</tspan></text>
	<polyline class="st11" points="1062.46,499.73 1062.46,550.62 1493.48,550.62 	"/>
	<polyline class="st11" points="918.78,561.39 918.78,496.8 1062.46,496.8 	"/>
	<text transform="matrix(0.9987 0 0 1 1499.3489 606.2647)"><tspan x="0" y="0" class="st9 st10"> </tspan><tspan x="10.77" y="0" class="st9 st10">M</tspan><tspan x="51.84" y="0" class="st9 st10">a</tspan><tspan x="73.37" y="0" class="st9 st10">R</tspan><tspan x="104.68" y="0" class="st9 st10">a</tspan><tspan x="126.21" y="0" class="st9 st10">b</tspan><tspan x="149.73" y="0" class="st9 st10">17</tspan></text>
	<polyline class="st11" points="1206.13,625.98 1206.13,593.68 1493.48,593.68 	"/>
	<text transform="matrix(0.9987 0 0 1 1499.3489 649.3223)"><tspan x="0" y="0" class="st9 st10"> </tspan><tspan x="10.77" y="0" class="st9 st10">M</tspan><tspan x="51.84" y="0" class="st9 st10">a</tspan><tspan x="73.37" y="0" class="st9 st10">R</tspan><tspan x="104.68" y="0" class="st9 st10">a</tspan><tspan x="126.21" y="0" class="st9 st10">b</tspan><tspan x="149.73" y="0" class="st9 st10">1</tspan></text>
	<polyline class="st11" points="1349.81,658.28 1349.81,636.75 1493.48,636.75 	"/>
	<text transform="matrix(0.9987 0 0 1 1499.3489 692.379)"><tspan x="0" y="0" class="st9 st10"> </tspan><tspan x="10.77" y="0" class="st9 st10">M</tspan><tspan x="51.84" y="0" class="st9 st10">a</tspan><tspan x="73.37" y="0" class="st9 st10">R</tspan><tspan x="104.68" y="0" class="st9 st10">a</tspan><tspan x="126.21" y="0" class="st9 st10">b</tspan><tspan x="149.73" y="0" class="st9 st10">6</tspan></text>
	<polyline class="st11" points="1349.81,661.21 1349.81,679.81 1493.48,679.81 	"/>
	<polyline class="st11" points="1206.13,628.92 1206.13,658.28 1349.81,658.28 	"/>
	<polyline class="st11" points="918.78,564.32 918.78,625.98 1206.13,625.98 	"/>
	<polyline class="st11" points="775.11,658.28 775.11,561.39 918.78,561.39 	"/>
	<text transform="matrix(0.9987 0 0 1 1499.3489 735.4356)"><tspan x="0" y="0" class="st9 st10"> </tspan><tspan x="10.77" y="0" class="st9 st10">M</tspan><tspan x="51.84" y="0" class="st9 st10">a</tspan><tspan x="73.37" y="0" class="st9 st10">R</tspan><tspan x="104.68" y="0" class="st9 st10">a</tspan><tspan x="126.21" y="0" class="st9 st10">b</tspan><tspan x="149.73" y="0" class="st9 st10">2</tspan></text>
	<polyline class="st11" points="1206.13,755.17 1206.13,722.87 1493.48,722.87 	"/>
	<text transform="matrix(0.9987 0 0 1 1499.3489 778.4932)"><tspan x="0" y="0" class="st9 st10"> </tspan><tspan x="10.77" y="0" class="st9 st10">M</tspan><tspan x="51.84" y="0" class="st9 st10">a</tspan><tspan x="73.37" y="0" class="st9 st10">R</tspan><tspan x="104.68" y="0" class="st9 st10">a</tspan><tspan x="126.21" y="0" class="st9 st10">b</tspan><tspan x="149.73" y="0" class="st9 st10">9</tspan></text>
	<polyline class="st11" points="1349.81,787.46 1349.81,765.93 1493.48,765.93 	"/>
	<text transform="matrix(0.9987 0 0 1 1499.3489 821.5499)"><tspan x="0" y="0" class="st9 st10"> </tspan><tspan x="10.77" y="0" class="st9 st10">M</tspan><tspan x="51.84" y="0" class="st9 st10">a</tspan><tspan x="73.37" y="0" class="st9 st10">R</tspan><tspan x="104.68" y="0" class="st9 st10">a</tspan><tspan x="126.21" y="0" class="st9 st10">b</tspan><tspan x="149.73" y="0" class="st9 st10">10</tspan></text>
	<polyline class="st11" points="1349.81,790.4 1349.81,808.99 1493.48,808.99 	"/>
	<polyline class="st11" points="1206.13,758.1 1206.13,787.46 1349.81,787.46 	"/>
	<polyline class="st11" points="775.11,661.21 775.11,755.17 1206.13,755.17 	"/>
	<polyline class="st11" points="631.43,755.17 631.43,658.28 775.11,658.28 	"/>
	<text transform="matrix(0.9987 0 0 1 1499.3489 864.6075)"><tspan x="0" y="0" class="st9 st10"> </tspan><tspan x="10.77" y="0" class="st9 st10">M</tspan><tspan x="51.84" y="0" class="st9 st10">a</tspan><tspan x="73.37" y="0" class="st9 st10">R</tspan><tspan x="104.68" y="0" class="st9 st10">a</tspan><tspan x="126.21" y="0" class="st9 st10">b</tspan><tspan x="149.73" y="0" class="st9 st10">20</tspan></text>
	<polyline class="st11" points="631.43,758.1 631.43,852.05 1493.48,852.05 	"/>
	<polyline class="st11" points="487.76,835.42 487.76,755.17 631.43,755.17 	"/>
	<text transform="matrix(0.9987 0 0 1 1499.3489 907.6641)"><tspan x="0" y="0" class="st9 st10"> </tspan><tspan x="10.77" y="0" class="st9 st10">M</tspan><tspan x="51.84" y="0" class="st9 st10">a</tspan><tspan x="73.37" y="0" class="st9 st10">R</tspan><tspan x="104.68" y="0" class="st9 st10">a</tspan><tspan x="126.21" y="0" class="st9 st10">b</tspan><tspan x="149.73" y="0" class="st9 st10">14</tspan></text>
	<polyline class="st11" points="1349.81,916.65 1349.81,895.12 1493.48,895.12 	"/>
	<text transform="matrix(0.9987 0 0 1 1499.3489 950.7422)"><tspan x="0" y="0" class="st9 st10"> </tspan><tspan x="10.77" y="0" class="st9 st10">M</tspan><tspan x="51.84" y="0" class="st9 st10">a</tspan><tspan x="73.37" y="0" class="st9 st10">R</tspan><tspan x="104.68" y="0" class="st9 st10">a</tspan><tspan x="126.21" y="0" class="st9 st10">b</tspan><tspan x="149.73" y="0" class="st9 st10">21</tspan></text>
	<polyline class="st11" points="1349.81,919.58 1349.81,938.18 1493.48,938.18 	"/>
	<polyline class="st11" points="487.76,838.35 487.76,916.65 1349.81,916.65 	"/>
	<polyline class="st11" points="344.08,536.92 344.08,835.42 487.76,835.42 	"/>
	<polyline class="st11" points="200.41,318.68 200.41,533.99 344.08,533.99 	"/>
	<polyline class="st11" points="56.73,706.23 56.73,315.74 200.41,315.74 	"/>
	<text transform="matrix(0.9987 0 0 1 1499.3489 993.7989)"><tspan x="0" y="0" class="st9 st10"> </tspan><tspan x="10.77" y="0" class="st9 st10">M</tspan><tspan x="51.84" y="0" class="st9 st10">a</tspan><tspan x="73.37" y="0" class="st9 st10">R</tspan><tspan x="104.68" y="0" class="st9 st10">a</tspan><tspan x="126.21" y="0" class="st9 st10">b</tspan><tspan x="149.73" y="0" class="st9 st10">27</tspan></text>
	<polyline class="st11" points="1062.46,1018.43 1062.46,981.24 1493.48,981.24 	"/>
	<text transform="matrix(0.9987 0 0 1 1499.3489 1036.8556)"><tspan x="0" y="0" class="st9 st10"> </tspan><tspan x="10.77" y="0" class="st9 st10">M</tspan><tspan x="51.84" y="0" class="st9 st10">a</tspan><tspan x="73.37" y="0" class="st9 st10">R</tspan><tspan x="104.68" y="0" class="st9 st10">a</tspan><tspan x="126.21" y="0" class="st9 st10">b</tspan><tspan x="149.73" y="0" class="st9 st10">24</tspan></text>
	<polyline class="st11" points="1206.13,1056.6 1206.13,1024.3 1493.48,1024.3 	"/>
	<text transform="matrix(0.9987 0 0 1 1499.3489 1079.9523)"><tspan x="0" y="0" class="st9 st10"> </tspan><tspan x="10.77" y="0" class="st9 st10">M</tspan><tspan x="51.84" y="0" class="st9 st10">a</tspan><tspan x="73.37" y="0" class="st9 st10">R</tspan><tspan x="104.68" y="0" class="st9 st10">a</tspan><tspan x="126.21" y="0" class="st9 st10">b</tspan><tspan x="149.73" y="0" class="st9 st10">11</tspan></text>
	<polyline class="st11" points="1349.81,1088.89 1349.81,1067.36 1493.48,1067.36 	"/>
	<text transform="matrix(0.9987 0 0 1 1499.3489 1122.9884)"><tspan x="0" y="0" class="st9 st10"> </tspan><tspan x="10.77" y="0" class="st9 st10">M</tspan><tspan x="51.84" y="0" class="st9 st10">a</tspan><tspan x="73.37" y="0" class="st9 st10">R</tspan><tspan x="104.68" y="0" class="st9 st10">a</tspan><tspan x="126.21" y="0" class="st9 st10">b</tspan><tspan x="149.73" y="0" class="st9 st10">22</tspan></text>
	<polyline class="st11" points="1349.81,1091.83 1349.81,1110.42 1493.48,1110.42 	"/>
	<polyline class="st11" points="1206.13,1059.53 1206.13,1088.89 1349.81,1088.89 	"/>
	<polyline class="st11" points="1062.46,1021.37 1062.46,1056.6 1206.13,1056.6 	"/>
	<polyline class="st11" points="918.78,1096.72 918.78,1018.43 1062.46,1018.43 	"/>
	<text transform="matrix(0.9987 0 0 1 1499.3489 1166.0665)"><tspan x="0" y="0" class="st9 st10"> </tspan><tspan x="10.77" y="0" class="st9 st10">M</tspan><tspan x="51.84" y="0" class="st9 st10">a</tspan><tspan x="73.37" y="0" class="st9 st10">R</tspan><tspan x="104.68" y="0" class="st9 st10">a</tspan><tspan x="126.21" y="0" class="st9 st10">b</tspan><tspan x="149.73" y="0" class="st9 st10">19</tspan></text>
	<polyline class="st11" points="1349.81,1175.02 1349.81,1153.49 1493.48,1153.49 	"/>
	<text transform="matrix(0.9987 0 0 1 1499.3489 1209.1027)"><tspan x="0" y="0" class="st9 st10"> </tspan><tspan x="10.77" y="0" class="st9 st10">M</tspan><tspan x="51.84" y="0" class="st9 st10">a</tspan><tspan x="73.37" y="0" class="st9 st10">R</tspan><tspan x="104.68" y="0" class="st9 st10">a</tspan><tspan x="126.21" y="0" class="st9 st10">b</tspan><tspan x="149.73" y="0" class="st9 st10">26</tspan></text>
	<polyline class="st11" points="1349.81,1177.95 1349.81,1196.55 1493.48,1196.55 	"/>
	<polyline class="st11" points="918.78,1099.66 918.78,1175.02 1349.81,1175.02 	"/>
	<polyline class="st11" points="56.73,709.17 56.73,1096.72 918.78,1096.72 	"/>
	<text transform="matrix(0.9987 0 0 1 1314.6143 90.6444)" class="st9 st12">99</text>
	<text transform="matrix(0.9987 0 0 1 1300.9277 176.7792)" class="st9 st12">100</text>
	<text transform="matrix(0.9987 0 0 1 1300.9277 305.95)" class="st9 st12">100</text>
	<text transform="matrix(0.9987 0 0 1 1170.9358 250.1652)" class="st9 st12">97</text>
	<text transform="matrix(0.9987 0 0 1 1027.261 201.2355)" class="st9 st12">90</text>
	<text transform="matrix(0.9987 0 0 1 1314.6143 392.1034)" class="st9 st12">96</text>
	<text transform="matrix(0.9987 0 0 1 1300.9277 478.2176)" class="st9 st12">100</text>
	<text transform="matrix(0.9987 0 0 1 1170.9358 411.6428)" class="st9 st12">99</text>
	<text transform="matrix(0.9987 0 0 1 1027.261 465.4709)" class="st9 st12">99</text>
	<text transform="matrix(0.9987 0 0 1 1314.6143 650.4667)" class="st9 st12">95</text>
	<text transform="matrix(0.9987 0 0 1 1170.9358 594.6603)" class="st9 st12">99</text>
	<text transform="matrix(0.9987 0 0 1 883.5833 530.0851)" class="st9 st12">83</text>
	<text transform="matrix(0.9987 0 0 1 1300.9277 779.6561)" class="st9 st12">100</text>
	<text transform="matrix(0.9987 0 0 1 1157.2512 723.8517)" class="st9 st12">100</text>
	<text transform="matrix(0.9987 0 0 1 739.9075 626.9699)" class="st9 st12">95</text>
	<text transform="matrix(0.9987 0 0 1 596.2313 723.8517)" class="st9 st12">95</text>
	<text transform="matrix(0.9987 0 0 1 1300.9277 908.827)" class="st9 st12">100</text>
	<text transform="matrix(0.9987 0 0 1 452.575 804.1125)" class="st9 st12">55</text>
	<text transform="matrix(0.9987 0 0 1 308.8787 502.674)" class="st9 st12">90</text>
	<text transform="matrix(0.9987 0 0 1 1314.6143 1081.0741)" class="st9 st12">99</text>
	<text transform="matrix(0.9987 0 0 1 1157.2512 1025.2903)" class="st9 st12">100</text>
	<text transform="matrix(0.9987 0 0 1 1013.5735 987.1086)" class="st9 st12">100</text>
	<text transform="matrix(0.9987 0 0 1 1300.9277 1167.1884)" class="st9 st12">100</text>
	<text transform="matrix(0.9987 0 0 1 883.5833 1065.3899)" class="st9 st12">85</text>
</g>
<g id="图层_3">
	<text transform="matrix(1 0 0 1 1721.8727 111.8296)" class="st9 st13">RabF</text>
	<text transform="matrix(1 0 0 1 1721.8727 197.6169)" class="st9 st13">RabC</text>
	<text transform="matrix(1 0 0 1 1721.8727 258.8935)" class="st9 st14">RabE</text>
	<text transform="matrix(1 0 0 1 1721.8727 321.702)" class="st9 st13">RabD</text>
	<text transform="matrix(1 0 0 1 1721.8727 614.2977)" class="st9 st13">RabA</text>
	<text transform="matrix(1 0 0 1 1721.8727 928.3403)" class="st9 st13">RabB</text>
	<text transform="matrix(1 0 0 1 1721.8727 1067.363)" class="st9 st13">RabG</text>
	<text transform="matrix(1 0 0 1 1721.8732 1196.548)" class="st9 st13">RabH</text>
</g>
</svg>
