<?xml version="1.0" encoding="utf-8"?>
<!-- Generator: Adobe Illustrator 23.0.2, SVG Export Plug-In . SVG Version: 6.00 Build 0)  -->
<svg version="1.1" id="图层_1" xmlns="http://www.w3.org/2000/svg" xmlns:xlink="http://www.w3.org/1999/xlink" x="0px" y="0px"
	 viewBox="0 0 814.7 630" style="enable-background:new 0 0 814.7 630;" xml:space="preserve">
<style type="text/css">
	.st0{fill:none;stroke:#000000;}
	.st1{font-family:'TimesNewRomanPS-BoldMT';}
	.st2{font-size:15px;}
	.st3{fill:#FF0000;}
	.st4{font-size:14px;}
</style>
<line class="st0" x1="157.8" y1="30" x2="157.8" y2="40"/>
<line class="st0" x1="157.8" y1="40" x2="175.8" y2="40"/>
<line class="st0" x1="157.8" y1="30" x2="157.8" y2="20"/>
<line class="st0" x1="157.8" y1="20" x2="175.8" y2="20"/>
<line class="st0" x1="157.8" y1="70" x2="157.8" y2="80"/>
<line class="st0" x1="157.8" y1="80" x2="175.8" y2="80"/>
<line class="st0" x1="157.8" y1="70" x2="157.8" y2="60"/>
<line class="st0" x1="157.8" y1="60" x2="175.8" y2="60"/>
<line class="st0" x1="139.8" y1="50" x2="139.8" y2="70"/>
<line class="st0" x1="139.8" y1="70" x2="157.8" y2="70"/>
<line class="st0" x1="139.8" y1="50" x2="139.8" y2="30"/>
<line class="st0" x1="139.8" y1="30" x2="157.8" y2="30"/>
<line class="st0" x1="122.8" y1="75" x2="122.8" y2="100"/>
<line class="st0" x1="122.8" y1="100" x2="175.8" y2="100"/>
<line class="st0" x1="122.8" y1="75" x2="122.8" y2="50"/>
<line class="st0" x1="122.8" y1="50" x2="139.8" y2="50"/>
<line class="st0" x1="139.8" y1="150" x2="139.8" y2="160"/>
<line class="st0" x1="139.8" y1="160" x2="175.8" y2="160"/>
<line class="st0" x1="139.8" y1="150" x2="139.8" y2="140"/>
<line class="st0" x1="139.8" y1="140" x2="175.8" y2="140"/>
<line class="st0" x1="122.8" y1="135" x2="122.8" y2="150"/>
<line class="st0" x1="122.8" y1="150" x2="139.8" y2="150"/>
<line class="st0" x1="122.8" y1="135" x2="122.8" y2="120"/>
<line class="st0" x1="122.8" y1="120" x2="175.8" y2="120"/>
<line class="st0" x1="104.8" y1="105" x2="104.8" y2="135"/>
<line class="st0" x1="104.8" y1="135" x2="122.8" y2="135"/>
<line class="st0" x1="104.8" y1="105" x2="104.8" y2="75"/>
<line class="st0" x1="104.8" y1="75" x2="122.8" y2="75"/>
<line class="st0" x1="122.8" y1="210" x2="122.8" y2="220"/>
<line class="st0" x1="122.8" y1="220" x2="175.8" y2="220"/>
<line class="st0" x1="122.8" y1="210" x2="122.8" y2="200"/>
<line class="st0" x1="122.8" y1="200" x2="175.8" y2="200"/>
<line class="st0" x1="104.8" y1="195" x2="104.8" y2="210"/>
<line class="st0" x1="104.8" y1="210" x2="122.8" y2="210"/>
<line class="st0" x1="104.8" y1="195" x2="104.8" y2="180"/>
<line class="st0" x1="104.8" y1="180" x2="175.8" y2="180"/>
<line class="st0" x1="86.8" y1="150" x2="86.8" y2="195"/>
<line class="st0" x1="86.8" y1="195" x2="104.8" y2="195"/>
<line class="st0" x1="86.8" y1="150" x2="86.8" y2="105"/>
<line class="st0" x1="86.8" y1="105" x2="104.8" y2="105"/>
<line class="st0" x1="69.8" y1="195" x2="69.8" y2="240"/>
<line class="st0" x1="69.8" y1="240" x2="175.8" y2="240"/>
<line class="st0" x1="69.8" y1="195" x2="69.8" y2="150"/>
<line class="st0" x1="69.8" y1="150" x2="86.8" y2="150"/>
<line class="st0" x1="69.8" y1="270" x2="69.8" y2="280"/>
<line class="st0" x1="69.8" y1="280" x2="175.8" y2="280"/>
<line class="st0" x1="69.8" y1="270" x2="69.8" y2="260"/>
<line class="st0" x1="69.8" y1="260" x2="175.8" y2="260"/>
<line class="st0" x1="51.8" y1="232" x2="51.8" y2="270"/>
<line class="st0" x1="51.8" y1="270" x2="69.8" y2="270"/>
<line class="st0" x1="51.8" y1="232" x2="51.8" y2="195"/>
<line class="st0" x1="51.8" y1="195" x2="69.8" y2="195"/>
<line class="st0" x1="69.8" y1="310" x2="69.8" y2="320"/>
<line class="st0" x1="69.8" y1="320" x2="175.8" y2="320"/>
<line class="st0" x1="69.8" y1="310" x2="69.8" y2="300"/>
<line class="st0" x1="69.8" y1="300" x2="175.8" y2="300"/>
<line class="st0" x1="86.8" y1="370" x2="86.8" y2="380"/>
<line class="st0" x1="86.8" y1="380" x2="175.8" y2="380"/>
<line class="st0" x1="86.8" y1="370" x2="86.8" y2="360"/>
<line class="st0" x1="86.8" y1="360" x2="175.8" y2="360"/>
<line class="st0" x1="69.8" y1="355" x2="69.8" y2="370"/>
<line class="st0" x1="69.8" y1="370" x2="86.8" y2="370"/>
<line class="st0" x1="69.8" y1="355" x2="69.8" y2="340"/>
<line class="st0" x1="69.8" y1="340" x2="175.8" y2="340"/>
<line class="st0" x1="51.8" y1="332" x2="51.8" y2="355"/>
<line class="st0" x1="51.8" y1="355" x2="69.8" y2="355"/>
<line class="st0" x1="51.8" y1="332" x2="51.8" y2="310"/>
<line class="st0" x1="51.8" y1="310" x2="69.8" y2="310"/>
<line class="st0" x1="33.8" y1="282" x2="33.8" y2="332"/>
<line class="st0" x1="33.8" y1="332" x2="51.8" y2="332"/>
<line class="st0" x1="33.8" y1="282" x2="33.8" y2="232"/>
<line class="st0" x1="33.8" y1="232" x2="51.8" y2="232"/>
<line class="st0" x1="33.8" y1="410" x2="33.8" y2="420"/>
<line class="st0" x1="33.8" y1="420" x2="175.8" y2="420"/>
<line class="st0" x1="33.8" y1="410" x2="33.8" y2="400"/>
<line class="st0" x1="33.8" y1="400" x2="175.8" y2="400"/>
<line class="st0" x1="51.8" y1="450" x2="51.8" y2="460"/>
<line class="st0" x1="51.8" y1="460" x2="175.8" y2="460"/>
<line class="st0" x1="51.8" y1="450" x2="51.8" y2="440"/>
<line class="st0" x1="51.8" y1="440" x2="175.8" y2="440"/>
<line class="st0" x1="86.8" y1="530" x2="86.8" y2="540"/>
<line class="st0" x1="86.8" y1="540" x2="175.8" y2="540"/>
<line class="st0" x1="86.8" y1="530" x2="86.8" y2="520"/>
<line class="st0" x1="86.8" y1="520" x2="175.8" y2="520"/>
<line class="st0" x1="69.8" y1="515" x2="69.8" y2="530"/>
<line class="st0" x1="69.8" y1="530" x2="86.8" y2="530"/>
<line class="st0" x1="69.8" y1="515" x2="69.8" y2="500"/>
<line class="st0" x1="69.8" y1="500" x2="175.8" y2="500"/>
<line class="st0" x1="51.8" y1="497" x2="51.8" y2="515"/>
<line class="st0" x1="51.8" y1="515" x2="69.8" y2="515"/>
<line class="st0" x1="51.8" y1="497" x2="51.8" y2="480"/>
<line class="st0" x1="51.8" y1="480" x2="175.8" y2="480"/>
<line class="st0" x1="33.8" y1="473" x2="33.8" y2="497"/>
<line class="st0" x1="33.8" y1="497" x2="51.8" y2="497"/>
<line class="st0" x1="33.8" y1="473" x2="33.8" y2="450"/>
<line class="st0" x1="33.8" y1="450" x2="51.8" y2="450"/>
<line class="st0" x1="16.8" y1="388" x2="16.8" y2="473"/>
<line class="st0" x1="16.8" y1="473" x2="33.8" y2="473"/>
<line class="st0" x1="16.8" y1="388" x2="16.8" y2="410"/>
<line class="st0" x1="16.8" y1="410" x2="33.8" y2="410"/>
<line class="st0" x1="16.8" y1="388" x2="16.8" y2="282"/>
<line class="st0" x1="16.8" y1="282" x2="33.8" y2="282"/>
<text transform="matrix(1 0 0 1 184.6596 25)" class="st1 st2">MaRab12</text>
<rect x="265.7" y="15" class="st3" width="14.9" height="10"/>
<line class="st0" x1="280.6" y1="20" x2="630.8" y2="20"/>
<rect x="630.8" y="15" class="st3" width="29.5" height="10"/>
<text transform="matrix(1 0 0 1 184.6596 45)" class="st1 st2">MaRab13</text>
<rect x="265.7" y="35" class="st3" width="14.9" height="10"/>
<line class="st0" x1="280.6" y1="40" x2="512.9" y2="40"/>
<rect x="512.9" y="35" class="st3" width="29.3" height="10"/>
<text transform="matrix(1 0 0 1 184.6596 65)" class="st1 st2">MaRab15</text>
<rect x="265.7" y="55" class="st3" width="14.9" height="10"/>
<line class="st0" x1="280.6" y1="60" x2="419.5" y2="60"/>
<rect x="419.5" y="55" class="st3" width="29.3" height="10"/>
<text transform="matrix(1 0 0 1 184.6596 85)" class="st1 st2">MaRab25</text>
<rect x="265.7" y="75" class="st3" width="14.9" height="10"/>
<line class="st0" x1="280.6" y1="80" x2="368.4" y2="80"/>
<rect x="368.4" y="75" class="st3" width="29.3" height="10"/>
<text transform="matrix(1 0 0 1 184.6596 105)" class="st1 st2">MaRab23</text>
<rect x="265.7" y="95" class="st3" width="11.2" height="10"/>
<line class="st0" x1="276.8" y1="100" x2="330.7" y2="100"/>
<rect x="330.7" y="95" class="st3" width="32.7" height="10"/>
<text transform="matrix(1 0 0 1 184.6596 125)" class="st1 st2">MaRab17</text>
<rect x="265.7" y="115" class="st3" width="16.8" height="10"/>
<line class="st0" x1="282.4" y1="120" x2="349.2" y2="120"/>
<rect x="349.2" y="115" class="st3" width="31.1" height="10"/>
<text transform="matrix(1 0 0 1 184.6596 145)" class="st1 st2">MaRab1</text>
<rect x="265.7" y="135" class="st3" width="15.8" height="10"/>
<line class="st0" x1="281.4" y1="140" x2="474.3" y2="140"/>
<rect x="474.3" y="135" class="st3" width="29.7" height="10"/>
<text transform="matrix(1 0 0 1 184.6596 165)" class="st1 st2">MaRab6</text>
<rect x="265.7" y="155" class="st3" width="15.4" height="10"/>
<line class="st0" x1="281" y1="160" x2="424.4" y2="160"/>
<rect x="424.4" y="155" class="st3" width="29.7" height="10"/>
<text transform="matrix(1 0 0 1 184.6596 185)" class="st1 st2">MaRab2</text>
<rect x="265.7" y="175" class="st3" width="23" height="10"/>
<line class="st0" x1="288.7" y1="180" x2="378.1" y2="180"/>
<rect x="378.1" y="175" class="st3" width="22.5" height="10"/>
<text transform="matrix(1 0 0 1 184.6596 205)" class="st1 st2">MaRab9</text>
<rect x="265.7" y="195" class="st3" width="23" height="10"/>
<line class="st0" x1="288.7" y1="200" x2="371.7" y2="200"/>
<rect x="371.7" y="195" class="st3" width="21.6" height="10"/>
<text transform="matrix(1 0 0 1 184.6596 225)" class="st1 st2">MaRab10</text>
<rect x="265.7" y="215" class="st3" width="22.8" height="10"/>
<line class="st0" x1="288.5" y1="220" x2="458.5" y2="220"/>
<rect x="458.5" y="215" class="st3" width="21" height="10"/>
<text transform="matrix(1 0 0 1 184.6596 245)" class="st1 st2">MaRab20</text>
<rect x="265.7" y="235" class="st3" width="14.7" height="10"/>
<line class="st0" x1="280.4" y1="240" x2="522" y2="240"/>
<rect x="522" y="235" class="st3" width="29.3" height="10"/>
<text transform="matrix(1 0 0 1 184.6596 265)" class="st1 st2">MaRab14</text>
<rect x="265.7" y="255" class="st3" width="3.1" height="10"/>
<line class="st0" x1="268.8" y1="260" x2="366.6" y2="260"/>
<rect x="366.6" y="255" class="st3" width="9.5" height="10"/>
<line class="st0" x1="376" y1="260" x2="444" y2="260"/>
<rect x="444" y="255" class="st3" width="5.6" height="10"/>
<line class="st0" x1="449.6" y1="260" x2="504" y2="260"/>
<rect x="504" y="255" class="st3" width="13.7" height="10"/>
<line class="st0" x1="517.7" y1="260" x2="528.4" y2="260"/>
<rect x="528.4" y="255" class="st3" width="4.7" height="10"/>
<line class="st0" x1="533" y1="260" x2="548.5" y2="260"/>
<rect x="548.5" y="255" class="st3" width="6.3" height="10"/>
<text transform="matrix(1 0 0 1 184.6596 285)" class="st1 st2">MaRab21</text>
<rect x="265.7" y="275" class="st3" width="3.1" height="10"/>
<line class="st0" x1="268.8" y1="280" x2="274.9" y2="280"/>
<rect x="274.9" y="275" class="st3" width="9.5" height="10"/>
<line class="st0" x1="284.4" y1="280" x2="408" y2="280"/>
<rect x="408" y="275" class="st3" width="5.6" height="10"/>
<line class="st0" x1="413.7" y1="280" x2="484.9" y2="280"/>
<rect x="484.9" y="275" class="st3" width="13.9" height="10"/>
<line class="st0" x1="498.7" y1="280" x2="506.1" y2="280"/>
<rect x="506.1" y="275" class="st3" width="4.7" height="10"/>
<line class="st0" x1="510.8" y1="280" x2="570.5" y2="280"/>
<rect x="570.5" y="275" class="st3" width="6.3" height="10"/>
<text transform="matrix(1 0 0 1 184.6596 305)" class="st1 st2">MaRab5</text>
<rect x="265.7" y="295" class="st3" width="9.4" height="10"/>
<line class="st0" x1="275.1" y1="300" x2="316.5" y2="300"/>
<rect x="316.5" y="295" class="st3" width="4.7" height="10"/>
<line class="st0" x1="321.1" y1="300" x2="331.9" y2="300"/>
<rect x="331.9" y="295" class="st3" width="4.5" height="10"/>
<line class="st0" x1="336.3" y1="300" x2="350.5" y2="300"/>
<rect x="350.5" y="295" class="st3" width="8.3" height="10"/>
<line class="st0" x1="358.8" y1="300" x2="372.1" y2="300"/>
<rect x="372.1" y="295" class="st3" width="8.7" height="10"/>
<line class="st0" x1="380.8" y1="300" x2="388" y2="300"/>
<rect x="388" y="295" class="st3" width="7.5" height="10"/>
<text transform="matrix(1 0 0 1 184.6596 325)" class="st1 st2">MaRab7</text>
<rect x="265.7" y="315" class="st3" width="9.2" height="10"/>
<line class="st0" x1="274.9" y1="320" x2="426.8" y2="320"/>
<rect x="426.8" y="315" class="st3" width="4.7" height="10"/>
<line class="st0" x1="431.4" y1="320" x2="470.9" y2="320"/>
<rect x="470.9" y="315" class="st3" width="4.5" height="10"/>
<line class="st0" x1="475.3" y1="320" x2="551.6" y2="320"/>
<rect x="551.6" y="315" class="st3" width="8.3" height="10"/>
<line class="st0" x1="559.8" y1="320" x2="568" y2="320"/>
<rect x="568" y="315" class="st3" width="8.7" height="10"/>
<line class="st0" x1="576.7" y1="320" x2="597.8" y2="320"/>
<rect x="597.8" y="315" class="st3" width="7.7" height="10"/>
<text transform="matrix(1 0 0 1 184.6596 345)" class="st1 st2">MaRab3</text>
<rect x="265.7" y="335" class="st3" width="4.9" height="10"/>
<line class="st0" x1="270.6" y1="340" x2="311.1" y2="340"/>
<rect x="311.1" y="335" class="st3" width="4.9" height="10"/>
<line class="st0" x1="316.1" y1="340" x2="323.4" y2="340"/>
<rect x="323.4" y="335" class="st3" width="6.8" height="10"/>
<line class="st0" x1="330.3" y1="340" x2="604.5" y2="340"/>
<rect x="604.5" y="335" class="st3" width="4.5" height="10"/>
<line class="st0" x1="609" y1="340" x2="624.4" y2="340"/>
<rect x="624.4" y="335" class="st3" width="6.6" height="10"/>
<line class="st0" x1="631.1" y1="340" x2="638.2" y2="340"/>
<rect x="638.2" y="335" class="st3" width="4.3" height="10"/>
<line class="st0" x1="642.4" y1="340" x2="647.9" y2="340"/>
<rect x="647.9" y="335" class="st3" width="6.3" height="10"/>
<line class="st0" x1="654.2" y1="340" x2="670.2" y2="340"/>
<rect x="670.2" y="335" class="st3" width="5.7" height="10"/>
<text transform="matrix(1 0 0 1 184.6596 365)" class="st1 st2">MaRab16</text>
<rect x="265.7" y="355" class="st3" width="0.9" height="10"/>
<line class="st0" x1="266.6" y1="360" x2="336.1" y2="360"/>
<rect x="336.1" y="355" class="st3" width="4.9" height="10"/>
<line class="st0" x1="341" y1="360" x2="432.1" y2="360"/>
<rect x="432.1" y="355" class="st3" width="3.2" height="10"/>
<line class="st0" x1="435.4" y1="360" x2="441.5" y2="360"/>
<rect x="441.5" y="355" class="st3" width="3.2" height="10"/>
<line class="st0" x1="444.7" y1="360" x2="451.7" y2="360"/>
<rect x="451.7" y="355" class="st3" width="4.9" height="10"/>
<line class="st0" x1="456.5" y1="360" x2="463.3" y2="360"/>
<rect x="463.3" y="355" class="st3" width="10.6" height="10"/>
<line class="st0" x1="473.9" y1="360" x2="483.8" y2="360"/>
<rect x="483.8" y="355" class="st3" width="7" height="10"/>
<line class="st0" x1="490.8" y1="360" x2="534.4" y2="360"/>
<rect x="534.4" y="355" class="st3" width="6.6" height="10"/>
<text transform="matrix(1 0 0 1 184.6596 385)" class="st1 st2">MaRab18</text>
<rect x="265.7" y="375" class="st3" width="0.9" height="10"/>
<line class="st0" x1="266.6" y1="380" x2="360.1" y2="380"/>
<rect x="360.1" y="375" class="st3" width="4.9" height="10"/>
<line class="st0" x1="365" y1="380" x2="403.1" y2="380"/>
<rect x="403.1" y="375" class="st3" width="3.2" height="10"/>
<line class="st0" x1="406.4" y1="380" x2="412.5" y2="380"/>
<rect x="412.5" y="375" class="st3" width="3.2" height="10"/>
<line class="st0" x1="415.8" y1="380" x2="453.2" y2="380"/>
<rect x="453.2" y="375" class="st3" width="4.9" height="10"/>
<line class="st0" x1="458.1" y1="380" x2="464.1" y2="380"/>
<rect x="464.1" y="375" class="st3" width="10.6" height="10"/>
<line class="st0" x1="474.7" y1="380" x2="482.2" y2="380"/>
<rect x="482.2" y="375" class="st3" width="7" height="10"/>
<line class="st0" x1="489.2" y1="380" x2="501.7" y2="380"/>
<rect x="501.7" y="375" class="st3" width="6.4" height="10"/>
<text transform="matrix(1 0 0 1 184.6596 405)" class="st1 st2">MaRab4</text>
<rect x="265.7" y="395" class="st3" width="1.7" height="10"/>
<line class="st0" x1="267.4" y1="400" x2="290.4" y2="400"/>
<rect x="290.4" y="395" class="st3" width="5.2" height="10"/>
<line class="st0" x1="295.6" y1="400" x2="357.2" y2="400"/>
<rect x="357.2" y="395" class="st3" width="5.7" height="10"/>
<line class="st0" x1="362.9" y1="400" x2="372.9" y2="400"/>
<rect x="372.9" y="395" class="st3" width="6.4" height="10"/>
<line class="st0" x1="379.4" y1="400" x2="389.6" y2="400"/>
<rect x="389.6" y="395" class="st3" width="7.2" height="10"/>
<line class="st0" x1="396.8" y1="400" x2="462.9" y2="400"/>
<rect x="462.9" y="395" class="st3" width="6.1" height="10"/>
<line class="st0" x1="469" y1="400" x2="475.1" y2="400"/>
<rect x="475.1" y="395" class="st3" width="5.9" height="10"/>
<line class="st0" x1="481" y1="400" x2="518.7" y2="400"/>
<rect x="518.7" y="395" class="st3" width="3.7" height="10"/>
<text transform="matrix(1 0 0 1 184.6596 425)" class="st1 st2">MaRab8</text>
<rect x="265.7" y="415" class="st3" width="2.6" height="10"/>
<line class="st0" x1="268.3" y1="420" x2="273.4" y2="420"/>
<rect x="273.4" y="415" class="st3" width="5.3" height="10"/>
<line class="st0" x1="278.7" y1="420" x2="357.9" y2="420"/>
<rect x="357.9" y="415" class="st3" width="11.4" height="10"/>
<line class="st0" x1="369.2" y1="420" x2="413.2" y2="420"/>
<rect x="413.2" y="415" class="st3" width="3.3" height="10"/>
<line class="st0" x1="416.5" y1="420" x2="462.8" y2="420"/>
<rect x="462.8" y="415" class="st3" width="5" height="10"/>
<line class="st0" x1="467.8" y1="420" x2="495.4" y2="420"/>
<rect x="495.4" y="415" class="st3" width="6.4" height="10"/>
<line class="st0" x1="501.8" y1="420" x2="558.7" y2="420"/>
<rect x="558.7" y="415" class="st3" width="6.8" height="10"/>
<text transform="matrix(1 0 0 1 184.6596 445)" class="st1 st2">MaRab19</text>
<rect x="265.7" y="435" class="st3" width="7.9" height="10"/>
<line class="st0" x1="273.6" y1="440" x2="377.8" y2="440"/>
<rect x="377.8" y="435" class="st3" width="4.8" height="10"/>
<line class="st0" x1="382.6" y1="440" x2="396.4" y2="440"/>
<rect x="396.4" y="435" class="st3" width="6" height="10"/>
<line class="st0" x1="402.4" y1="440" x2="452.4" y2="440"/>
<rect x="452.4" y="435" class="st3" width="7.6" height="10"/>
<line class="st0" x1="460" y1="440" x2="521.4" y2="440"/>
<rect x="521.4" y="435" class="st3" width="6.2" height="10"/>
<line class="st0" x1="527.6" y1="440" x2="555.6" y2="440"/>
<rect x="555.6" y="435" class="st3" width="9.7" height="10"/>
<text transform="matrix(1 0 0 1 184.6596 465)" class="st1 st2">MaRab26</text>
<rect x="265.7" y="455" class="st3" width="7.9" height="10"/>
<line class="st0" x1="273.6" y1="460" x2="330.3" y2="460"/>
<rect x="330.3" y="455" class="st3" width="4.8" height="10"/>
<line class="st0" x1="335.1" y1="460" x2="345.1" y2="460"/>
<rect x="345.1" y="455" class="st3" width="6" height="10"/>
<line class="st0" x1="351.2" y1="460" x2="364.2" y2="460"/>
<rect x="364.2" y="455" class="st3" width="7.6" height="10"/>
<line class="st0" x1="371.8" y1="460" x2="393.6" y2="460"/>
<rect x="393.6" y="455" class="st3" width="6.2" height="10"/>
<line class="st0" x1="399.7" y1="460" x2="417.2" y2="460"/>
<rect x="417.2" y="455" class="st3" width="9.7" height="10"/>
<text transform="matrix(1 0 0 1 184.6596 485)" class="st1 st2">MaRab27</text>
<rect x="265.7" y="475" class="st3" width="3.6" height="10"/>
<line class="st0" x1="269.2" y1="480" x2="275.2" y2="480"/>
<rect x="275.2" y="475" class="st3" width="1.8" height="10"/>
<line class="st0" x1="277" y1="480" x2="369.1" y2="480"/>
<rect x="369.1" y="475" class="st3" width="6.8" height="10"/>
<line class="st0" x1="375.9" y1="480" x2="383" y2="480"/>
<rect x="383" y="475" class="st3" width="9.9" height="10"/>
<line class="st0" x1="393" y1="480" x2="654.9" y2="480"/>
<rect x="654.9" y="475" class="st3" width="5.5" height="10"/>
<line class="st0" x1="660.4" y1="480" x2="665.5" y2="480"/>
<rect x="665.5" y="475" class="st3" width="9.9" height="10"/>
<line class="st0" x1="675.4" y1="480" x2="775.1" y2="480"/>
<rect x="775.1" y="475" class="st3" width="4.5" height="10"/>
<text transform="matrix(1 0 0 1 184.6596 505)" class="st1 st2">MaRab24</text>
<rect x="265.7" y="495" class="st3" width="3.6" height="10"/>
<line class="st0" x1="269.2" y1="500" x2="299.3" y2="500"/>
<rect x="299.3" y="495" class="st3" width="1.8" height="10"/>
<line class="st0" x1="301.1" y1="500" x2="322.7" y2="500"/>
<rect x="322.7" y="495" class="st3" width="6.8" height="10"/>
<line class="st0" x1="329.5" y1="500" x2="397.3" y2="500"/>
<rect x="397.3" y="495" class="st3" width="9.9" height="10"/>
<line class="st0" x1="407.2" y1="500" x2="414.7" y2="500"/>
<rect x="414.7" y="495" class="st3" width="5.5" height="10"/>
<line class="st0" x1="420.2" y1="500" x2="429.4" y2="500"/>
<rect x="429.4" y="495" class="st3" width="9.9" height="10"/>
<line class="st0" x1="439.3" y1="500" x2="470.1" y2="500"/>
<rect x="470.1" y="495" class="st3" width="4.5" height="10"/>
<text transform="matrix(1 0 0 1 184.6596 525)" class="st1 st2">MaRab11</text>
<rect x="265.7" y="515" class="st3" width="3.6" height="10"/>
<line class="st0" x1="269.2" y1="520" x2="286" y2="520"/>
<rect x="286" y="515" class="st3" width="1.8" height="10"/>
<line class="st0" x1="287.8" y1="520" x2="297" y2="520"/>
<rect x="297" y="515" class="st3" width="6.8" height="10"/>
<line class="st0" x1="303.7" y1="520" x2="412.4" y2="520"/>
<rect x="412.4" y="515" class="st3" width="9.9" height="10"/>
<line class="st0" x1="422.4" y1="520" x2="428.3" y2="520"/>
<rect x="428.3" y="515" class="st3" width="5.5" height="10"/>
<line class="st0" x1="433.8" y1="520" x2="443.5" y2="520"/>
<rect x="443.5" y="515" class="st3" width="9.9" height="10"/>
<line class="st0" x1="453.4" y1="520" x2="471.6" y2="520"/>
<rect x="471.6" y="515" class="st3" width="4.7" height="10"/>
<text transform="matrix(1 0 0 1 184.6596 545)" class="st1 st2">MaRab22</text>
<rect x="265.7" y="535" class="st3" width="3.6" height="10"/>
<line class="st0" x1="269.2" y1="540" x2="297.2" y2="540"/>
<rect x="297.2" y="535" class="st3" width="1.8" height="10"/>
<line class="st0" x1="299.1" y1="540" x2="304.9" y2="540"/>
<rect x="304.9" y="535" class="st3" width="6.8" height="10"/>
<line class="st0" x1="311.7" y1="540" x2="398.3" y2="540"/>
<rect x="398.3" y="535" class="st3" width="9.9" height="10"/>
<line class="st0" x1="408.2" y1="540" x2="415.5" y2="540"/>
<rect x="415.5" y="535" class="st3" width="5.5" height="10"/>
<line class="st0" x1="421" y1="540" x2="428.6" y2="540"/>
<rect x="428.6" y="535" class="st3" width="9.9" height="10"/>
<line class="st0" x1="438.5" y1="540" x2="486.8" y2="540"/>
<rect x="486.8" y="535" class="st3" width="4.7" height="10"/>
<text transform="matrix(1 0 0 1 252.6596 555)" class="st1 st4">5&apos;</text>
<text transform="matrix(1 0 0 1 784.6595 555)" class="st1 st4">3&apos;</text>
<line class="st0" x1="265.7" y1="560" x2="779.7" y2="560"/>
<line class="st0" x1="265.7" y1="560" x2="265.7" y2="555"/>
<text transform="matrix(1 0 0 1 260.6596 570)" class="st1 st4">0kb</text>
<line class="st0" x1="333.3" y1="560" x2="333.3" y2="555"/>
<text transform="matrix(1 0 0 1 328.3001 570)" class="st1 st4">1kb</text>
<line class="st0" x1="400.9" y1="560" x2="400.9" y2="555"/>
<text transform="matrix(1 0 0 1 395.9406 570)" class="st1 st4">2kb</text>
<line class="st0" x1="468.6" y1="560" x2="468.6" y2="555"/>
<text transform="matrix(1 0 0 1 463.581 570)" class="st1 st4">3kb</text>
<line class="st0" x1="536.2" y1="560" x2="536.2" y2="555"/>
<text transform="matrix(1 0 0 1 531.2214 570)" class="st1 st4">4kb</text>
<line class="st0" x1="603.9" y1="560" x2="603.9" y2="555"/>
<text transform="matrix(1 0 0 1 598.8619 570)" class="st1 st4">5kb</text>
<line class="st0" x1="671.5" y1="560" x2="671.5" y2="555"/>
<text transform="matrix(1 0 0 1 666.5024 570)" class="st1 st4">6kb</text>
<line class="st0" x1="739.1" y1="560" x2="739.1" y2="555"/>
<text transform="matrix(1 0 0 1 734.1429 570)" class="st1 st4">7kb</text>
<text transform="matrix(1 0 0 1 292.4068 595)" class="st1 st2">Legend:</text>
<rect x="292.4" y="605" class="st3" width="20" height="10"/>
<text transform="matrix(1 0 0 1 317.4068 615)" class="st1 st2">Exon</text>
<line class="st0" x1="362.4" y1="610" x2="382.4" y2="610"/>
<text transform="matrix(1 0 0 1 387.4068 615)" class="st1 st2">Intron</text>
</svg>
