<!DOCTYPE svg PUBLIC "-//W3C//DTD SVG 1.1//EN" "http://www.w3.org/Graphics/SVG/1.1/DTD/svg11.dtd">
<svg xmlns="http://www.w3.org/2000/svg" xmlns:xlink="http://www.w3.org/1999/xlink" xmlns:jfreesvg="http://www.jfree.org/jfreesvg/svg" width="440" height="440" text-rendering="auto" shape-rendering="auto">
<defs></defs>
<rect x="0" y="0" width="600" height="600" style="fill: rgb(255,255,255); fill-opacity: 1.0" transform="matrix(1,0,0,1,-30,-30)" /><rect x="0" y="0" width="600" height="600" style="fill: rgb(255,255,255); fill-opacity: 1.0" transform="matrix(1,0,0,1,-30,-30)" /><ellipse cx="190" cy="290" rx="100" ry="100" style="fill: rgb(31,120,180); fill-opacity: 0.6" transform="matrix(1,0,0,1,-30,-30)" /><ellipse cx="190" cy="290" rx="100" ry="100" style="stroke-width: 1.0;stroke: rgb(0,0,0);stroke-opacity: 1.0;stroke-linecap: round;stroke-linejoin: round;; fill: none" transform="matrix(1,0,0,1,-30,-30)" /><g transform="matrix(1,0,0,1,-30,-30)"><text x="146.72" y="325" style="fill: rgb(0,0,0); fill-opacity: 1.0; font-family: Arial; font-size: 14px; " >3</text></g><g transform="matrix(1,0,0,1,-30,-30)"><text x="56.52" y="370" style="fill: rgb(0,0,0); fill-opacity: 1.0; font-family: Arial; font-size: 14px; font-weight: bold; " >Drought</text></g><ellipse cx="310" cy="290" rx="100" ry="100" style="fill: rgb(230,85,13); fill-opacity: 0.6" transform="matrix(1,0,0,1,-30,-30)" /><ellipse cx="310" cy="290" rx="100" ry="100" style="stroke-width: 1.0;stroke: rgb(0,0,0);stroke-opacity: 1.0;stroke-linecap: round;stroke-linejoin: round;; fill: none" transform="matrix(1,0,0,1,-30,-30)" /><g transform="matrix(1,0,0,1,-30,-30)"><text x="346.72" y="325" style="fill: rgb(0,0,0); fill-opacity: 1.0; font-family: Arial; font-size: 14px; " >3</text></g><g transform="matrix(1,0,0,1,-30,-30)"><text x="390" y="370" style="fill: rgb(0,0,0); fill-opacity: 1.0; font-family: Arial; font-size: 14px; font-weight: bold; " >Salt</text></g><ellipse cx="250" cy="190" rx="100" ry="100" style="fill: rgb(153,153,153); fill-opacity: 0.6" transform="matrix(1,0,0,1,-30,-30)" /><ellipse cx="250" cy="190" rx="100" ry="100" style="stroke-width: 1.0;stroke: rgb(0,0,0);stroke-opacity: 1.0;stroke-linecap: round;stroke-linejoin: round;; fill: none" transform="matrix(1,0,0,1,-30,-30)" /><g transform="matrix(1,0,0,1,-30,-30)"><text x="248.15" y="155" style="fill: rgb(0,0,0); fill-opacity: 1.0; font-family: Arial; font-size: 14px; " >1</text></g><g transform="matrix(1,0,0,1,-30,-30)"><text x="234.97" y="84" style="fill: rgb(0,0,0); fill-opacity: 1.0; font-family: Arial; font-size: 14px; font-weight: bold; " >ABA</text></g><g transform="matrix(1,0,0,1,-30,-30)"><text x="246.53" y="325" style="fill: rgb(0,0,0); fill-opacity: 1.0; font-family: Arial; font-size: 14px; " >4</text></g><g transform="matrix(1,0,0,1,-30,-30)"><text x="296.68" y="240" style="fill: rgb(0,0,0); fill-opacity: 1.0; font-family: Arial; font-size: 14px; " >2</text></g><g transform="matrix(1,0,0,1,-30,-30)"><text x="198.15" y="240" style="fill: rgb(0,0,0); fill-opacity: 1.0; font-family: Arial; font-size: 14px; " >1</text></g><g transform="matrix(1,0,0,1,-30,-30)"><text x="246.7" y="265" style="fill: rgb(0,0,0); fill-opacity: 1.0; font-family: Arial; font-size: 14px; " >8</text></g></svg>
