<?xml version="1.0" encoding="utf-8"?>
<!-- Generator: Adobe Illustrator 23.0.2, SVG Export Plug-In . SVG Version: 6.00 Build 0)  -->
<svg version="1.1" id="图层_1" shape-rendering="auto" text-rendering="auto" xmlns:jfreesvg="http://www.jfree.org/jfreesvg/svg"
	 xmlns="http://www.w3.org/2000/svg" xmlns:xlink="http://www.w3.org/1999/xlink" x="0px" y="0px" viewBox="0 0 1441 642"
	 style="enable-background:new 0 0 1441 642;" xml:space="preserve">
<style type="text/css">
	.st0{fill:none;stroke:#003DFF;stroke-width:2;stroke-linecap:round;stroke-linejoin:round;}
	.st1{fill:none;stroke:#0031FF;stroke-width:2;stroke-linecap:round;stroke-linejoin:round;}
	.st2{fill:none;stroke:#033EF9;stroke-width:2;stroke-linecap:round;stroke-linejoin:round;}
	.st3{fill:none;stroke:#000000;stroke-width:0.9091;stroke-linecap:round;stroke-linejoin:round;}
	.st4{font-family:'TimesNewRomanPS-BoldMT';}
	.st5{font-size:18px;}
	.st6{fill:#B3B3B3;stroke:#000836;stroke-miterlimit:10;}
	.st7{fill:none;stroke:#000836;stroke-width:0.9091;stroke-linecap:round;stroke-linejoin:round;}
	.st8{fill:#B3B3B3;}
	.st9{fill:#0000FF;stroke:#003DFF;stroke-width:2;stroke-miterlimit:10;}
	.st10{fill:none;stroke:#003DFF;stroke-width:2;stroke-linecap:round;}
	.st11{fill:#FFFFFF;}
	.st12{fill:#0000FF;stroke:#033EF9;stroke-width:2;stroke-miterlimit:10;}
	.st13{fill:none;stroke:#033EF9;stroke-width:2;stroke-linecap:round;}
	.st14{fill:#0000FF;stroke:#0031FF;stroke-width:2;stroke-miterlimit:10;}
	.st15{fill:none;stroke:#0031FF;stroke-width:2;stroke-linecap:round;}
</style>
<line class="st0" x1="351.6" y1="192.6" x2="373.5" y2="192.5"/>
<line class="st1" x1="187" y1="463.2" x2="208.5" y2="463.5"/>
<line class="st0" x1="351.6" y1="242.8" x2="373.5" y2="242.5"/>
<line class="st0" x1="1129.4" y1="340.3" x2="1151.4" y2="340.5"/>
<line class="st1" x1="187" y1="178.1" x2="208.5" y2="178.5"/>
<line class="st0" x1="1129.4" y1="321.4" x2="1151.4" y2="321.5"/>
<line class="st1" x1="187" y1="173.9" x2="208.5" y2="165.5"/>
<line class="st0" x1="1129.4" y1="432.8" x2="1151.4" y2="432.5"/>
<line class="st1" x1="187" y1="285.9" x2="208.5" y2="285.5"/>
<line class="st0" x1="1129.4" y1="363.6" x2="1151.4" y2="363.5"/>
<line class="st1" x1="187" y1="206.8" x2="208.5" y2="206.5"/>
<line class="st0" x1="1284.9" y1="368.3" x2="1306.4" y2="368.5"/>
<line class="st1" x1="187" y1="95.3" x2="208.5" y2="95.5"/>
<line class="st1" x1="187" y1="78.1" x2="208.5" y2="78.5"/>
<line class="st2" x1="662.7" y1="46.8" x2="684.5" y2="46.5"/>
<line class="st0" x1="507.1" y1="271.9" x2="529.5" y2="271.5"/>
<line class="st2" x1="662.7" y1="130.8" x2="684.5" y2="130.5"/>
<line class="st2" x1="662.7" y1="81.4" x2="684.5" y2="81.5"/>
<line class="st2" x1="662.7" y1="466.9" x2="684.5" y2="466.5"/>
<line class="st2" x1="662.7" y1="355.1" x2="684.5" y2="355.5"/>
<line class="st0" x1="818.3" y1="107.3" x2="840.5" y2="107.5"/>
<line class="st0" x1="818.3" y1="48.9" x2="840.5" y2="48.5"/>
<line class="st0" x1="973.8" y1="135.9" x2="995.4" y2="135.5"/>
<line class="st0" x1="818.3" y1="409.2" x2="840.5" y2="409.5"/>
<line class="st0" x1="973.8" y1="405.2" x2="995.4" y2="405.5"/>
<line class="st0" x1="1129.4" y1="55.9" x2="1151.4" y2="55.5"/>
<line class="st0" x1="973.8" y1="464" x2="995.4" y2="464.5"/>
<line class="st3" x1="20.4" y1="41.2" x2="20.4" y2="591.9"/>
<line class="st3" x1="20.4" y1="41.2" x2="51.5" y2="41.2"/>
<g transform="matrix(-0,-1,1,0,-52.758889,279.021614)">
	<text transform="matrix(1 0 0 1 217.4796 122.24)" class="st4 st5">0 Mb</text>
</g>
<line class="st3" x1="20.4" y1="110.1" x2="51.5" y2="110.1"/>
<g transform="matrix(-0,-1,1,0,-121.589867,352.623423)">
	<text transform="matrix(1 0 0 1 217.4799 191.07)" class="st4 st5">20 Mb</text>
</g>
<line class="st3" x1="20.4" y1="178.9" x2="51.5" y2="178.9"/>
<g transform="matrix(-0,-1,1,0,-190.420846,421.449194)">
	<text transform="matrix(1 0 0 1 217.4804 259.9)" class="st4 st5">40 Mb</text>
</g>
<line class="st3" x1="20.4" y1="247.7" x2="51.5" y2="247.7"/>
<g transform="matrix(-0,-1,1,0,-259.251824,490.170797)">
	<text transform="matrix(1 0 0 1 217.4804 328.73)" class="st4 st5">60 Mb</text>
</g>
<line class="st3" x1="20.4" y1="316.6" x2="51.5" y2="316.6"/>
<g transform="matrix(-0,-1,1,0,-328.082803,559.017401)">
	<text transform="matrix(1 0 0 1 217.4803 397.57)" class="st4 st5">80 Mb</text>
</g>
<line class="st3" x1="20.4" y1="385.4" x2="51.5" y2="385.4"/>
<g transform="matrix(-0,-1,1,0,-396.913781,632.239002)">
	<text transform="matrix(1 0 0 1 217.4802 466.4)" class="st4 st5">100 Mb</text>
</g>
<line class="st3" x1="20.4" y1="454.2" x2="51.5" y2="454.2"/>
<g transform="matrix(-0,-1,1,0,-465.74476,701.06998)">
	<text transform="matrix(1 0 0 1 217.4802 535.23)" class="st4 st5">120 Mb</text>
</g>
<line class="st3" x1="20.4" y1="523.1" x2="51.5" y2="523.1"/>
<g transform="matrix(-0,-1,1,0,-534.575738,769.900959)">
	<text transform="matrix(1 0 0 1 217.48 604.06)" class="st4 st5">140 Mb</text>
</g>
<line class="st3" x1="20.4" y1="591.9" x2="51.5" y2="591.9"/>
<g transform="matrix(-0,-1,1,0,-603.406717,838.731937)">
	<text transform="matrix(1 0 0 1 217.48 672.89)" class="st4 st5">160 Mb</text>
</g>
<g transform="matrix(1,0,0,1,-166,-81)">
	<path class="st6" d="M317.4,127.2v473.9c0,2.8,2.2,5,5,5h20.1c2.8,0,5-2.2,5-5V127.2c0-2.8-2.2-5-5-5h-20.1
		C319.6,122.2,317.4,124.5,317.4,127.2z"/>
</g>
<g transform="matrix(1,0,0,1,-166,-81)">
	<path class="st7" d="M317.4,127.2v473.9c0,2.8,2.2,5,5,5h20.1c2.8,0,5-2.2,5-5V127.2c0-2.8-2.2-5-5-5h-20.1
		C319.6,122.2,317.4,124.5,317.4,127.2z"/>
</g>
<g transform="matrix(-0,-1,1,0,-239.849797,593.607319)">
	<text transform="matrix(0 1 -1 0 578.7871 386.0627)" class="st4 st5">Chr1</text>
</g>
<g transform="matrix(1,0,0,1,-166,-81)">
	<path class="st8" d="M481.9,127.2v460c0,2.8,2.2,5,5,5H507c2.8,0,5-2.2,5-5v-460c0-2.8-2.2-5-5-5h-20.1
		C484.2,122.2,481.9,124.5,481.9,127.2z"/>
</g>
<g transform="matrix(1,0,0,1,-166,-81)">
	<path class="st3" d="M481.9,127.2v460c0,2.8,2.2,5,5,5H507c2.8,0,5-2.2,5-5v-460c0-2.8-2.2-5-5-5h-20.1
		C484.2,122.2,481.9,124.5,481.9,127.2z"/>
</g>
<g transform="matrix(-0,-1,1,0,-57.363688,762.482322)">
	<text transform="matrix(0 1 -1 0 747.6622 367.2514)" class="st4 st5">Chr2</text>
</g>
<g transform="matrix(1,0,0,1,-166,-81)">
	<path class="st8" d="M637.5,127.2v442.2c0,2.8,2.2,5,5,5h20.1c2.8,0,5-2.2,5-5V127.2c0-2.8-2.2-5-5-5h-20.1
		C639.7,122.2,637.5,124.5,637.5,127.2z"/>
</g>
<g transform="matrix(1,0,0,1,-166,-81)">
	<path class="st3" d="M637.5,127.2v442.2c0,2.8,2.2,5,5,5h20.1c2.8,0,5-2.2,5-5V127.2c0-2.8-2.2-5-5-5h-20.1
		C639.7,122.2,637.5,124.5,637.5,127.2z"/>
</g>
<g transform="matrix(-0,-1,1,0,107.106089,909.040322)">
	<text transform="matrix(0 1 -1 0 894.2204 359.7836)" class="st4 st5">Chr3</text>
</g>
<g transform="matrix(1,0,0,1,-166,-81)">
	<path class="st8" d="M793,127.2v441c0,2.8,2.2,5,5,5h20.1c2.8,0,5-2.2,5-5v-441c0-2.8-2.2-5-5-5H798
		C795.3,122.2,793,124.5,793,127.2z"/>
</g>
<g transform="matrix(1,0,0,1,-166,-81)">
	<path class="st3" d="M793,127.2v441c0,2.8,2.2,5,5,5h20.1c2.8,0,5-2.2,5-5v-441c0-2.8-2.2-5-5-5H798
		C795.3,122.2,793,124.5,793,127.2z"/>
</g>
<g transform="matrix(-0,-1,1,0,263.263678,1064.150094)">
	<text transform="matrix(0 1 -1 0 1049.33 360.0664)" class="st4 st5">Chr4</text>
</g>
<g transform="matrix(1,0,0,1,-166,-81)">
	<path class="st8" d="M948.6,127.2v440.7c0,2.8,2.2,5,5,5h20.1c2.8,0,5-2.2,5-5V127.2c0-2.8-2.2-5-5-5h-20.1
		C950.8,122.2,948.6,124.5,948.6,127.2z"/>
</g>
<g transform="matrix(1,0,0,1,-166,-81)">
	<path class="st3" d="M948.6,127.2v440.7c0,2.8,2.2,5,5,5h20.1c2.8,0,5-2.2,5-5V127.2c0-2.8-2.2-5-5-5h-20.1
		C950.8,122.2,948.6,124.5,948.6,127.2z"/>
</g>
<g transform="matrix(-0,-1,1,0,418.971474,1219.579452)">
	<text transform="matrix(0 1 -1 0 1204.759 357.4895)" class="st4 st5">Chr5</text>
</g>
<g transform="matrix(1,0,0,1,-166,-81)">
	<path class="st8" d="M1104.2,127.2v440.3c0,2.8,2.2,5,5,5h20.1c2.8,0,5-2.2,5-5V127.2c0-2.8-2.2-5-5-5h-20.1
		C1106.4,122.2,1104.2,124.5,1104.2,127.2z"/>
</g>
<g transform="matrix(1,0,0,1,-166,-81)">
	<path class="st3" d="M1104.2,127.2v440.3c0,2.8,2.2,5,5,5h20.1c2.8,0,5-2.2,5-5V127.2c0-2.8-2.2-5-5-5h-20.1
		C1106.4,122.2,1104.2,124.5,1104.2,127.2z"/>
</g>
<g transform="matrix(-0,-1,1,0,574.728239,1375.001505)">
	<text transform="matrix(0 1 -1 0 1360.182 358.8607)" class="st4 st5">Chr6</text>
</g>
<g transform="matrix(1,0,0,1,-166,-81)">
	<path class="st8" d="M1259.7,127.2V549c0,2.8,2.2,5,5,5h20.1c2.8,0,5-2.2,5-5V127.2c0-2.8-2.2-5-5-5h-20.1
		C1261.9,122.2,1259.7,124.5,1259.7,127.2z"/>
</g>
<g transform="matrix(1,0,0,1,-166,-81)">
	<path class="st3" d="M1259.7,127.2V549c0,2.8,2.2,5,5,5h20.1c2.8,0,5-2.2,5-5V127.2c0-2.8-2.2-5-5-5h-20.1
		C1261.9,122.2,1259.7,124.5,1259.7,127.2z"/>
</g>
<g transform="matrix(-0,-1,1,0,739.519346,1521.378802)">
	<text transform="matrix(0 1 -1 0 1506.5592 343.2521)" class="st4 st5">Chr7</text>
</g>
<g transform="matrix(1,0,0,1,-166,-81)">
	<path class="st8" d="M1415.3,127.2v387.2c0,2.8,2.2,5,5,5h20.1c2.8,0,5-2.2,5-5V127.2c0-2.8-2.2-5-5-5h-20.1
		C1417.5,122.2,1415.3,124.5,1415.3,127.2z"/>
</g>
<g transform="matrix(1,0,0,1,-166,-81)">
	<path class="st3" d="M1415.3,127.2v387.2c0,2.8,2.2,5,5,5h20.1c2.8,0,5-2.2,5-5V127.2c0-2.8-2.2-5-5-5h-20.1
		C1417.5,122.2,1415.3,124.5,1415.3,127.2z"/>
</g>
<g transform="matrix(-0,-1,1,0,912.349495,1659.555596)">
	<text transform="matrix(0 1 -1 0 1644.7356 329.8048)" class="st4 st5">Chr8</text>
</g>
<rect x="938.2" y="464" class="st9" width="31.1" height="0"/>
<rect x="938.2" y="464" class="st10" width="31.1" height="0"/>
<g transform="matrix(1,0,0,1,-166,-81)">
	<path class="st11" d="M1166.7,539h75.3v12h-75.3V539z"/>
</g>
<g transform="matrix(1,0,0,1,-166,-81)">
	<text transform="matrix(1 0 0 1 1166.37 551.02)" class="st4 st5">MaRab21</text>
</g>
<line class="st0" x1="969.3" y1="464" x2="973.8" y2="464"/>
<rect x="1093.7" y="55.9" class="st9" width="31.1" height="0"/>
<rect x="1093.7" y="55.9" class="st10" width="31.1" height="0"/>
<g transform="matrix(1,0,0,1,-166,-81)">
	<path class="st11" d="M1322.3,130.9h75.8v12h-75.8V130.9z"/>
</g>
<g transform="matrix(1,0,0,1,-166,-81)">
	<text transform="matrix(1 0 0 1 1321.9301 142.86)" class="st4 st5">MaRab22</text>
</g>
<line class="st0" x1="1124.8" y1="55.9" x2="1129.4" y2="55.9"/>
<rect x="938.2" y="405.2" class="st9" width="31.1" height="0"/>
<rect x="938.2" y="405.2" class="st10" width="31.1" height="0"/>
<g transform="matrix(1,0,0,1,-166,-81)">
	<path class="st11" d="M1166.7,480.2h76v12h-76V480.2z"/>
</g>
<g transform="matrix(1,0,0,1,-166,-81)">
	<text transform="matrix(1 0 0 1 1166.37 492.24)" class="st4 st5">MaRab20</text>
</g>
<line class="st0" x1="969.3" y1="405.2" x2="973.8" y2="405.2"/>
<rect x="782.6" y="409.2" class="st9" width="31.1" height="0"/>
<rect x="782.6" y="409.2" class="st10" width="31.1" height="0"/>
<g transform="matrix(1,0,0,1,-166,-81)">
	<path class="st11" d="M1011.2,484.2h76v12h-76V484.2z"/>
</g>
<g transform="matrix(1,0,0,1,-166,-81)">
	<text transform="matrix(1 0 0 1 1010.8201 496.17)" class="st4 st5">MaRab18</text>
</g>
<line class="st0" x1="813.7" y1="409.2" x2="818.3" y2="409.2"/>
<rect x="938.2" y="135.9" class="st9" width="31.1" height="0"/>
<rect x="938.2" y="135.9" class="st10" width="31.1" height="0"/>
<g transform="matrix(1,0,0,1,-166,-81)">
	<path class="st11" d="M1166.7,210.9h76v12h-76V210.9z"/>
</g>
<g transform="matrix(1,0,0,1,-166,-81)">
	<text transform="matrix(1 0 0 1 1166.37 222.92)" class="st4 st5">MaRab19</text>
</g>
<line class="st0" x1="969.3" y1="135.9" x2="973.8" y2="135.9"/>
<rect x="782.6" y="48.9" class="st9" width="31.1" height="0"/>
<rect x="782.6" y="48.9" class="st10" width="31.1" height="0"/>
<g transform="matrix(1,0,0,1,-166,-81)">
	<path class="st11" d="M1011.2,123.9h76.1v12h-76.1V123.9z"/>
</g>
<g transform="matrix(1,0,0,1,-166,-81)">
	<text transform="matrix(1 0 0 1 1010.8201 135.9)" class="st4 st5">MaRab16</text>
</g>
<line class="st0" x1="813.7" y1="48.9" x2="818.3" y2="48.9"/>
<rect x="782.6" y="107.3" class="st9" width="31.1" height="0"/>
<rect x="782.6" y="107.3" class="st10" width="31.1" height="0"/>
<g transform="matrix(1,0,0,1,-166,-81)">
	<path class="st11" d="M1011.2,182.3h76.2v12h-76.2V182.3z"/>
</g>
<g transform="matrix(1,0,0,1,-166,-81)">
	<text transform="matrix(1 0 0 1 1010.8201 194.26)" class="st4 st5">MaRab17</text>
</g>
<line class="st0" x1="813.7" y1="107.3" x2="818.3" y2="107.3"/>
<rect x="627" y="355.1" class="st12" width="31.1" height="0"/>
<rect x="627" y="355.1" class="st13" width="31.1" height="0"/>
<g transform="matrix(1,0,0,1,-166,-81)">
	<path class="st11" d="M855.6,430.1h75.9v12h-75.9V430.1z"/>
</g>
<g transform="matrix(1,0,0,1,-166,-81)">
	<text transform="matrix(1 0 0 1 855.26 442.1)" class="st4 st5">MaRab14</text>
</g>
<line class="st2" x1="658.2" y1="355.1" x2="662.7" y2="355.1"/>
<rect x="627" y="466.9" class="st12" width="31.1" height="0"/>
<rect x="627" y="466.9" class="st13" width="31.1" height="0"/>
<g transform="matrix(1,0,0,1,-166,-81)">
	<path class="st11" d="M855.6,541.9h76v12h-76V541.9z"/>
</g>
<g transform="matrix(1,0,0,1,-166,-81)">
	<text transform="matrix(1 0 0 1 855.26 553.93)" class="st4 st5">MaRab15</text>
</g>
<line class="st2" x1="658.2" y1="466.9" x2="662.7" y2="466.9"/>
<rect x="627" y="81.4" class="st12" width="31.1" height="0"/>
<rect x="627" y="81.4" class="st13" width="31.1" height="0"/>
<g transform="matrix(1,0,0,1,-166,-81)">
	<path class="st11" d="M855.6,156.4h75.8v12h-75.8V156.4z"/>
</g>
<g transform="matrix(1,0,0,1,-166,-81)">
	<text transform="matrix(1 0 0 1 855.26 168.45)" class="st4 st5">MaRab12</text>
</g>
<line class="st2" x1="658.2" y1="81.4" x2="662.7" y2="81.4"/>
<rect x="627" y="130.8" class="st12" width="31.1" height="0"/>
<rect x="627" y="130.8" class="st13" width="31.1" height="0"/>
<g transform="matrix(1,0,0,1,-166,-81)">
	<path class="st11" d="M855.6,205.8h75.6v12h-75.6V205.8z"/>
</g>
<g transform="matrix(1,0,0,1,-166,-81)">
	<text transform="matrix(1 0 0 1 855.26 217.82)" class="st4 st5">MaRab13</text>
</g>
<line class="st2" x1="658.2" y1="130.8" x2="662.7" y2="130.8"/>
<rect x="471.5" y="271.8" class="st9" width="31.1" height="0"/>
<rect x="471.5" y="271.8" class="st10" width="31.1" height="0"/>
<g transform="matrix(1,0,0,1,-166,-81)">
	<path class="st11" d="M700.1,346.9h76v12h-76V346.9z"/>
</g>
<g transform="matrix(1,0,0,1,-166,-81)">
	<text transform="matrix(1 0 0 1 699.71 358.85)" class="st4 st5">MaRab10</text>
</g>
<line class="st0" x1="502.6" y1="271.9" x2="507.1" y2="271.9"/>
<rect x="627" y="46.8" class="st12" width="31.1" height="0"/>
<rect x="627" y="46.8" class="st13" width="31.1" height="0"/>
<g transform="matrix(1,0,0,1,-166,-81)">
	<path class="st11" d="M855.6,121.8h75.3v12h-75.3V121.8z"/>
</g>
<g transform="matrix(1,0,0,1,-166,-81)">
	<text transform="matrix(1 0 0 1 855.26 133.84)" class="st4 st5">MaRab11</text>
</g>
<line class="st2" x1="658.2" y1="46.8" x2="662.7" y2="46.8"/>
<rect x="151.4" y="78.1" class="st14" width="31.1" height="0"/>
<rect x="151.4" y="78.1" class="st15" width="31.1" height="0"/>
<g transform="matrix(1,0,0,1,-166,-81)">
	<path class="st11" d="M380,153.1h65.9v12H380V153.1z"/>
</g>
<g transform="matrix(1,0,0,1,-166,-81)">
	<text transform="matrix(1 0 0 1 379.59 165.1)" class="st4 st5">MaRab1</text>
</g>
<line class="st1" x1="182.5" y1="78.1" x2="187" y2="78.1"/>
<rect x="151.4" y="95.3" class="st14" width="31.1" height="0"/>
<rect x="151.4" y="95.3" class="st15" width="31.1" height="0"/>
<g transform="matrix(1,0,0,1,-166,-81)">
	<path class="st11" d="M380,170.3h66.4v12H380V170.3z"/>
</g>
<g transform="matrix(1,0,0,1,-166,-81)">
	<text transform="matrix(1 0 0 1 379.59 182.33)" class="st4 st5">MaRab2</text>
</g>
<line class="st1" x1="182.5" y1="95.3" x2="187" y2="95.3"/>
<rect x="1249.3" y="368.3" class="st9" width="31.1" height="0"/>
<rect x="1249.3" y="368.3" class="st10" width="31.1" height="0"/>
<g transform="matrix(1,0,0,1,-166,-81)">
	<path class="st11" d="M1477.8,443.3h76.2v12h-76.2V443.3z"/>
</g>
<g transform="matrix(1,0,0,1,-166,-81)">
	<text transform="matrix(1 0 0 1 1477.48 455.33)" class="st4 st5">MaRab27</text>
</g>
<line class="st0" x1="1280.4" y1="368.3" x2="1284.9" y2="368.3"/>
<rect x="151.4" y="206.8" class="st14" width="31.1" height="0"/>
<rect x="151.4" y="206.8" class="st15" width="31.1" height="0"/>
<g transform="matrix(1,0,0,1,-166,-81)">
	<path class="st11" d="M380,281.8h66.6v12H380V281.8z"/>
</g>
<g transform="matrix(1,0,0,1,-166,-81)">
	<text transform="matrix(1 0 0 1 379.59 293.77)" class="st4 st5">MaRab5</text>
</g>
<line class="st1" x1="182.5" y1="206.8" x2="187" y2="206.8"/>
<rect x="1093.7" y="363.6" class="st9" width="31.1" height="0"/>
<rect x="1093.7" y="363.6" class="st10" width="31.1" height="0"/>
<g transform="matrix(1,0,0,1,-166,-81)">
	<path class="st11" d="M1322.3,438.6h76v12h-76V438.6z"/>
</g>
<g transform="matrix(1,0,0,1,-166,-81)">
	<text transform="matrix(1 0 0 1 1321.9301 450.64)" class="st4 st5">MaRab25</text>
</g>
<line class="st0" x1="1124.8" y1="363.6" x2="1129.4" y2="363.6"/>
<rect x="151.4" y="285.9" class="st14" width="31.1" height="0"/>
<rect x="151.4" y="285.9" class="st15" width="31.1" height="0"/>
<g transform="matrix(1,0,0,1,-166,-81)">
	<path class="st11" d="M380,360.9h66.8v12H380V360.9z"/>
</g>
<g transform="matrix(1,0,0,1,-166,-81)">
	<text transform="matrix(1 0 0 1 379.59 372.91)" class="st4 st5">MaRab6</text>
</g>
<line class="st1" x1="182.5" y1="285.9" x2="187" y2="285.9"/>
<rect x="1093.7" y="432.8" class="st9" width="31.1" height="0"/>
<rect x="1093.7" y="432.8" class="st10" width="31.1" height="0"/>
<g transform="matrix(1,0,0,1,-166,-81)">
	<path class="st11" d="M1322.3,507.8h76.1v12h-76.1V507.8z"/>
</g>
<g transform="matrix(1,0,0,1,-166,-81)">
	<text transform="matrix(1 0 0 1 1321.9301 519.82)" class="st4 st5">MaRab26</text>
</g>
<line class="st0" x1="1124.8" y1="432.8" x2="1129.4" y2="432.8"/>
<rect x="151.4" y="173.9" class="st14" width="31.1" height="0"/>
<rect x="151.4" y="173.9" class="st15" width="31.1" height="0"/>
<g transform="matrix(1,0,0,1,-166,-81)">
	<path class="st11" d="M380,240.7h66.3v12H380V240.7z"/>
</g>
<g transform="matrix(1,0,0,1,-166,-81)">
	<text transform="matrix(1 0 0 1 379.59 252.7)" class="st4 st5">MaRab3</text>
</g>
<line class="st1" x1="182.5" y1="173.9" x2="187" y2="173.9"/>
<polygon class="st9" points="1093.7,321.4 1124.8,321.4 1124.8,321.4 "/>
<polygon class="st10" points="1093.7,321.4 1124.8,321.4 1124.8,321.4 "/>
<g transform="matrix(1,0,0,1,-166,-81)">
	<path class="st11" d="M1322.3,396.4h75.6v12h-75.6V396.4z"/>
</g>
<g transform="matrix(1,0,0,1,-166,-81)">
	<text transform="matrix(1 0 0 1 1321.9301 408.35)" class="st4 st5">MaRab23</text>
</g>
<line class="st0" x1="1124.8" y1="321.4" x2="1129.4" y2="321.4"/>
<rect x="151.4" y="178.1" class="st14" width="31.1" height="0"/>
<rect x="151.4" y="178.1" class="st15" width="31.1" height="0"/>
<g transform="matrix(1,0,0,1,-166,-81)">
	<path class="st11" d="M380,253.1h66.6v12H380V253.1z"/>
</g>
<g transform="matrix(1,0,0,1,-166,-81)">
	<text transform="matrix(1 0 0 1 379.59 265.12)" class="st4 st5">MaRab4</text>
</g>
<line class="st1" x1="182.5" y1="178.1" x2="187" y2="178.1"/>
<rect x="1093.7" y="340.3" class="st9" width="31.1" height="0"/>
<rect x="1093.7" y="340.3" class="st10" width="31.1" height="0"/>
<g transform="matrix(1,0,0,1,-166,-81)">
	<path class="st11" d="M1322.3,415.3h75.9v12h-75.9V415.3z"/>
</g>
<g transform="matrix(1,0,0,1,-166,-81)">
	<text transform="matrix(1 0 0 1 1321.9301 427.29)" class="st4 st5">MaRab24</text>
</g>
<line class="st0" x1="1124.8" y1="340.3" x2="1129.4" y2="340.3"/>
<rect x="315.9" y="242.8" class="st9" width="31.1" height="0"/>
<rect x="315.9" y="242.8" class="st10" width="31.1" height="0"/>
<g transform="matrix(1,0,0,1,-166,-81)">
	<path class="st11" d="M544.5,317.8h66.7v12h-66.7V317.8z"/>
</g>
<g transform="matrix(1,0,0,1,-166,-81)">
	<text transform="matrix(1 0 0 1 544.15 329.8)" class="st4 st5">MaRab9</text>
</g>
<line class="st0" x1="347" y1="242.8" x2="351.6" y2="242.8"/>
<rect x="151.4" y="463.2" class="st14" width="31.1" height="0"/>
<rect x="151.4" y="463.2" class="st15" width="31.1" height="0"/>
<g transform="matrix(1,0,0,1,-166,-81)">
	<path class="st11" d="M380,538.3h66.9v12H380V538.3z"/>
</g>
<g transform="matrix(1,0,0,1,-166,-81)">
	<text transform="matrix(1 0 0 1 379.59 550.25)" class="st4 st5">MaRab7</text>
</g>
<line class="st1" x1="182.5" y1="463.2" x2="187" y2="463.2"/>
<rect x="315.9" y="192.6" class="st9" width="31.1" height="0"/>
<rect x="315.9" y="192.6" class="st10" width="31.1" height="0"/>
<g transform="matrix(1,0,0,1,-166,-81)">
	<path class="st11" d="M544.5,267.6h66.7v12h-66.7V267.6z"/>
</g>
<g transform="matrix(1,0,0,1,-166,-81)">
	<text transform="matrix(1 0 0 1 544.15 279.63)" class="st4 st5">MaRab8</text>
</g>
<line class="st0" x1="347" y1="192.6" x2="351.6" y2="192.6"/>
<g transform="matrix(1,0,0,1,-166,-81)">
	<path class="st0" d="M1161.4,545.5h4.6"/>
</g>
<g transform="matrix(1,0,0,1,-166,-81)">
	<path class="st0" d="M1317.4,136.5h4.6"/>
</g>
<g transform="matrix(1,0,0,1,-166,-81)">
	<path class="st0" d="M1161.4,486.5h4.6"/>
</g>
<g transform="matrix(1,0,0,1,-166,-81)">
	<path class="st0" d="M1006.5,490.5h4.5"/>
</g>
<g transform="matrix(1,0,0,1,-166,-81)">
	<path class="st0" d="M1161.4,216.5h4.6"/>
</g>
<g transform="matrix(1,0,0,1,-166,-81)">
	<path class="st0" d="M1006.5,129.5h4.5"/>
</g>
<g transform="matrix(1,0,0,1,-166,-81)">
	<path class="st0" d="M1006.5,188.5h4.5"/>
</g>
<g transform="matrix(1,0,0,1,-166,-81)">
	<path class="st2" d="M850.5,436.5h4.5"/>
</g>
<g transform="matrix(1,0,0,1,-166,-81)">
	<path class="st2" d="M850.5,547.5h4.5"/>
</g>
<g transform="matrix(1,0,0,1,-166,-81)">
	<path class="st2" d="M850.5,162.5h4.5"/>
</g>
<g transform="matrix(1,0,0,1,-166,-81)">
	<path class="st2" d="M850.5,211.5h4.5"/>
</g>
<g transform="matrix(1,0,0,1,-166,-81)">
	<path class="st0" d="M695.5,352.5h4.5"/>
</g>
<g transform="matrix(1,0,0,1,-166,-81)">
	<path class="st2" d="M850.5,127.5h4.5"/>
</g>
<g transform="matrix(1,0,0,1,-166,-81)">
	<path class="st1" d="M374.5,159.5h4.5"/>
</g>
<g transform="matrix(1,0,0,1,-166,-81)">
	<path class="st1" d="M374.5,176.5h4.5"/>
</g>
<g transform="matrix(1,0,0,1,-166,-81)">
	<path class="st0" d="M1472.4,449.5h4.6"/>
</g>
<g transform="matrix(1,0,0,1,-166,-81)">
	<path class="st1" d="M374.5,287.5h4.5"/>
</g>
<g transform="matrix(1,0,0,1,-166,-81)">
	<path class="st0" d="M1317.4,444.5h4.6"/>
</g>
<g transform="matrix(1,0,0,1,-166,-81)">
	<path class="st1" d="M374.5,366.5h4.5"/>
</g>
<g transform="matrix(1,0,0,1,-166,-81)">
	<path class="st0" d="M1317.4,513.5h4.6"/>
</g>
<g transform="matrix(1,0,0,1,-166,-81)">
	<path class="st1" d="M374.5,246.5h4.5"/>
</g>
<g transform="matrix(1,0,0,1,-166,-81)">
	<path class="st0" d="M1317.4,402.5h4.6"/>
</g>
<g transform="matrix(1,0,0,1,-166,-81)">
	<path class="st1" d="M374.5,259.5h4.5"/>
</g>
<g transform="matrix(1,0,0,1,-166,-81)">
	<path class="st0" d="M1317.4,421.5h4.6"/>
</g>
<g transform="matrix(1,0,0,1,-166,-81)">
	<path class="st0" d="M539.5,323.5h4.5"/>
</g>
<g transform="matrix(1,0,0,1,-166,-81)">
	<path class="st1" d="M374.5,544.5h4.5"/>
</g>
<g transform="matrix(1,0,0,1,-166,-81)">
	<path class="st0" d="M539.5,273.5h4.5"/>
</g>
</svg>
