<?xml version="1.0" encoding="utf-8"?>
<!-- Generator: Adobe Illustrator 23.0.2, SVG Export Plug-In . SVG Version: 6.00 Build 0)  -->
<svg version="1.1" id="图层_1" shape-rendering="auto" text-rendering="auto" xmlns:jfreesvg="http://www.jfree.org/jfreesvg/svg"
	 xmlns="http://www.w3.org/2000/svg" xmlns:xlink="http://www.w3.org/1999/xlink" x="0px" y="0px" viewBox="0 0 476 458"
	 style="enable-background:new 0 0 476 458;" xml:space="preserve">
<style type="text/css">
	.st0{fill:none;stroke:#000000;stroke-linecap:square;}
	.st1{fill:#E588A6;fill-opacity:0.32;}
	.st2{fill:#FFBC00;fill-opacity:0.32;}
	.st3{fill:#0AC5AD;fill-opacity:0.32;}
	.st4{fill:#3FAAE2;fill-opacity:0.32;}
	.st5{fill:#FF0000;fill-opacity:0.32;}
	.st6{font-family:'TimesNewRomanPS-BoldMT';}
	.st7{font-size:20px;}
	.st8{font-size:12px;}
</style>
<g transform="matrix(1,0,0,1,-208.039286,-150.933333)">
	<path class="st0" d="M454.9,515.2c-45.4,0-82.3-73.7-82.3-164.6s36.8-164.6,82.3-164.6c45.4,0,82.3,73.7,82.3,164.6
		S500.3,515.2,454.9,515.2z"/>
</g>
<g transform="matrix(1,0,0,1,-208.039286,-150.933333)">
	<path class="st1" d="M454.9,515.2c-45.4,0-82.3-73.7-82.3-164.6s36.8-164.6,82.3-164.6c45.4,0,82.3,73.7,82.3,164.6
		S500.3,515.2,454.9,515.2z"/>
</g>
<g transform="matrix(1,0,0,1,-208.039286,-150.933333)">
	<path class="st0" d="M324.9,450.9c-14-43.2,44.6-101,131.1-129.1c86.4-28.1,167.9-15.8,182,27.4c14,43.2-44.7,101-131.1,129.1
		C420.4,506.4,338.9,494.1,324.9,450.9z"/>
</g>
<g transform="matrix(1,0,0,1,-208.039286,-150.933333)">
	<path class="st2" d="M324.9,450.9c-14-43.2,44.6-101,131.1-129.1c86.4-28.1,167.9-15.8,182,27.4c14,43.2-44.7,101-131.1,129.1
		C420.4,506.4,338.9,494.1,324.9,450.9z"/>
</g>
<g transform="matrix(1,0,0,1,-208.039286,-150.933333)">
	<path class="st0" d="M355.4,304.8c36.8-26.7,109.9,11.2,163.3,84.8c53.4,73.5,66.9,154.8,30.2,181.5
		c-36.8,26.7-109.9-11.2-163.3-84.8C332.1,412.8,318.6,331.5,355.4,304.8z"/>
</g>
<g transform="matrix(1,0,0,1,-208.039286,-150.933333)">
	<path class="st3" d="M355.4,304.8c36.8-26.7,109.9,11.2,163.3,84.8c53.4,73.5,66.9,154.8,30.2,181.5
		c-36.8,26.7-109.9-11.2-163.3-84.8C332.1,412.8,318.6,331.5,355.4,304.8z"/>
</g>
<g transform="matrix(1,0,0,1,-208.039286,-150.933333)">
	<path class="st0" d="M497.1,287.3c37.2,26.1,25.1,107.6-27,182S345.5,583,308.3,556.9c-37.2-26.1-25.1-107.5,27-182
		C387.4,300.5,459.9,261.2,497.1,287.3z"/>
</g>
<g transform="matrix(1,0,0,1,-208.039286,-150.933333)">
	<path class="st4" d="M497.1,287.3c37.2,26.1,25.1,107.6-27,182S345.5,583,308.3,556.9c-37.2-26.1-25.1-107.5,27-182
		C387.4,300.5,459.9,261.2,497.1,287.3z"/>
</g>
<g transform="matrix(1,0,0,1,-208.039286,-150.933333)">
	<path class="st0" d="M564.5,421.3c-13.3,43.5-94.5,57.1-181.4,30.6c-86.9-26.6-146.6-83.4-133.3-126.8
		c13.3-43.5,94.5-57.1,181.4-30.6C518.1,321.1,577.8,377.9,564.5,421.3z"/>
</g>
<g transform="matrix(1,0,0,1,-208.039286,-150.933333)">
	<path class="st5" d="M564.5,421.3c-13.3,43.5-94.5,57.1-181.4,30.6c-86.9-26.6-146.6-83.4-133.3-126.8
		c13.3-43.5,94.5-57.1,181.4-30.6C518.1,321.1,577.8,377.9,564.5,421.3z"/>
</g>
<g transform="matrix(1,0,0,1,222.515773,18.666667)">
	<text transform="matrix(1 0 0 1 -3.092969e-05 -4.202344e-05)" class="st6 st7">Root</text>
</g>
<g transform="matrix(1,0,0,1,438.817857,194.209524)">
	<text transform="matrix(1 0 0 1 -20 -38.4584)" class="st6 st7">Stem</text>
</g>
<g transform="matrix(1,0,0,1,367.503571,424.609524)">
	<text transform="matrix(1 0 0 1 -3.096094e-05 -3.092969e-05)" class="st6 st7">Flower</text>
</g>
<g transform="matrix(1,0,0,1,65.789286,413.638096)">
	<text transform="matrix(1 0 0 1 -25.9096 10.9718)" class="st6 st7">Seed</text>
</g>
<g transform="matrix(1,0,0,1,10,150.32381)">
	<text transform="matrix(1 0 0 1 0 -1.549609e-05)" class="st6 st7">Leaf</text>
</g>
<g transform="matrix(1,0,0,1,244.015774,87.676191)">
	<text transform="matrix(1 0 0 1 -3.092969e-05 1.549609e-05)" class="st6 st8">0</text>
</g>
<g transform="matrix(1,0,0,1,381.158631,219.333334)">
	<text transform="matrix(1 0 0 1 6.140625e-05 -1.501172e-05)" class="st6 st8">0</text>
</g>
<g transform="matrix(1,0,0,1,304.358631,383.904763)">
	<text transform="matrix(1 0 0 1 0 3.015625e-05)" class="st6 st8">0</text>
</g>
<g transform="matrix(1,0,0,1,119.063095,378.419048)">
	<text transform="matrix(1 0 0 1 1.535156e-05 3.038281e-05)" class="st6 st8">1</text>
</g>
<g transform="matrix(1,0,0,1,73.958631,191.904763)">
	<text transform="matrix(1 0 0 1 -1.483594e-05 1.515625e-05)" class="st6 st8">0</text>
</g>
<g transform="matrix(1,0,0,1,317.042524,181.756191)">
	<text transform="matrix(1 0 0 1 -3.053125e-05 3.058594e-05)" class="st6 st8">1</text>
</g>
<g transform="matrix(1,0,0,1,250.336238,356.476191)">
	<text class="st6 st8">1</text>
</g>
<g transform="matrix(1,0,0,1,259.814631,149.774477)">
	<text class="st6 st8">0</text>
</g>
<g transform="matrix(1,0,0,1,184.77006,146.373334)">
	<text transform="matrix(1 0 0 1 1.556641e-05 1.505078e-05)" class="st6 st8">0</text>
</g>
<g transform="matrix(1,0,0,1,316.54881,318.076191)">
	<text transform="matrix(1 0 0 1 3.012500e-05 -3.012500e-05)" class="st6 st8">1</text>
</g>
<g transform="matrix(1,0,0,1,135.343774,314.291048)">
	<text transform="matrix(1 0 0 1 -3.100000e-05 -3.037500e-05)" class="st6 st8">0</text>
</g>
<g transform="matrix(1,0,0,1,338.644345,261.573334)">
	<text transform="matrix(1 0 0 1 -6.089063e-05 3.025781e-05)" class="st6 st8">0</text>
</g>
<g transform="matrix(1,0,0,1,202.653488,364.265905)">
	<text transform="matrix(1 0 0 1 1.541797e-05 -3.085937e-05)" class="st6 st8">0</text>
</g>
<g transform="matrix(1,0,0,1,142.310631,185.267048)">
	<text transform="matrix(1 0 0 1 3.094531e-05 -1.519141e-05)" class="st6 st8">0</text>
</g>
<g transform="matrix(1,0,0,1,112.358631,260.860191)">
	<text transform="matrix(1 0 0 1 1.557813e-05 3.049219e-05)" class="st6 st8">0</text>
</g>
<g transform="matrix(1,0,0,1,276.009381,331.516191)">
	<text transform="matrix(1 0 0 1 3.041406e-05 3.035156e-05)" class="st6 st8">1</text>
</g>
<g transform="matrix(1,0,0,1,294.813488,175.44762)">
	<text transform="matrix(1 0 0 1 0 1.483594e-05)" class="st6 st8">0</text>
</g>
<g transform="matrix(1,0,0,1,316.043202,230.74362)">
	<text transform="matrix(1 0 0 1 0 3.034375e-05)" class="st6 st8">0</text>
</g>
<g transform="matrix(1,0,0,1,221.688917,356.476191)">
	<text transform="matrix(1 0 0 1 -1.519141e-05 0)" class="st6 st8">0</text>
</g>
<g transform="matrix(1,0,0,1,173.085488,163.817905)">
	<text transform="matrix(1 0 0 1 1.525391e-05 -3.090625e-05)" class="st6 st8">0</text>
</g>
<g transform="matrix(1,0,0,1,229.862631,163.653334)">
	<text transform="matrix(1 0 0 1 -1.513672e-05 -1.568750e-05)" class="st6 st8">0</text>
</g>
<g transform="matrix(1,0,0,1,176.541488,328.718477)">
	<text transform="matrix(1 0 0 1 1.490625e-05 3.085937e-05)" class="st6 st8">0</text>
</g>
<g transform="matrix(1,0,0,1,323.448917,294.48762)">
	<text transform="matrix(1 0 0 1 6.060937e-05 0)" class="st6 st8">0</text>
</g>
<g transform="matrix(1,0,0,1,129.254631,278.414477)">
	<text transform="matrix(1 0 0 1 1.567187e-05 0)" class="st6 st8">0</text>
</g>
<g transform="matrix(1,0,0,1,142.091202,220.704763)">
	<text transform="matrix(1 0 0 1 -1.547656e-05 1.494922e-05)" class="st6 st8">0</text>
</g>
<g transform="matrix(1,0,0,1,219.813357,332.448763)">
	<text transform="matrix(1 0 0 1 0 -3.053125e-05)" class="st6 st8">3</text>
</g>
<g transform="matrix(1,0,0,1,298.488917,285.765334)">
	<text transform="matrix(1 0 0 1 -3.039844e-05 0)" class="st6 st8">0</text>
</g>
<g transform="matrix(1,0,0,1,281.15406,199.091048)">
	<text transform="matrix(1 0 0 1 0 1.545312e-05)" class="st6 st8">0</text>
</g>
<g transform="matrix(1,0,0,1,191.791774,184.444191)">
	<text transform="matrix(1 0 0 1 -3.095312e-05 1.486719e-05)" class="st6 st8">0</text>
</g>
<g transform="matrix(1,0,0,1,153.117488,268.430477)">
	<text class="st6 st8">0</text>
</g>
<g transform="matrix(1,0,0,1,219.503792,252.412191)">
	<text transform="matrix(1 0 0 1 -1.482031e-05 -1.558984e-05)" class="st6 st8">19</text>
</g>
</svg>
